<svg width="32" height="32" viewBox="0 0 32 32" fill="none" xmlns="http://www.w3.org/2000/svg">
<g clip-path="url(#clip0_477_61434)">
<path d="M15.5375 0.381249C15.4313 0.4625 15.1312 0.9875 14.7375 1.775C14.3937 2.4625 14.1 3.04375 14.0875 3.05625C14.075 3.06875 13.4375 3.16875 12.6625 3.28125C11.7875 3.4125 11.2063 3.525 11.1125 3.5875C10.9062 3.725 10.8125 3.94375 10.8125 4.3V4.59375L11.8813 5.63125L12.9438 6.66875L12.725 7.95C12.4375 9.5875 12.4375 9.7 12.7125 9.975C12.8937 10.1562 12.9625 10.1875 13.2313 10.1875C13.4875 10.1812 13.7 10.0938 14.7687 9.5375L16.0062 8.89375L17.2375 9.5375C18.3 10.1 18.5125 10.1875 18.7688 10.1875C19.0312 10.1875 19.1062 10.1562 19.2875 9.975C19.5625 9.7 19.5625 9.58125 19.275 7.94375L19.0563 6.66875L20.125 5.63125L21.1875 4.59375V4.29375C21.1875 3.9625 21.0625 3.69375 20.8562 3.5625C20.7812 3.51875 20.0938 3.3875 19.325 3.275C18.5563 3.1625 17.9188 3.0625 17.9062 3.05C17.8938 3.0375 17.6063 2.4625 17.2625 1.775C16.8688 0.9875 16.5687 0.4625 16.4625 0.381249C16.3438 0.287499 16.2063 0.25 16 0.25C15.7938 0.25 15.6562 0.287499 15.5375 0.381249ZM16.3938 3.59375C16.65 4.11875 16.8 4.34375 16.9375 4.43125C17.0563 4.5 17.4313 4.5875 17.9437 4.65625L18.7625 4.76875L18.1312 5.36875C17.7188 5.7625 17.4875 6.03125 17.4625 6.15625C17.425 6.30625 17.525 7.1375 17.6688 7.83125L17.7 8L16.9875 7.625C16.4313 7.3375 16.2063 7.25 16 7.25C15.7938 7.25 15.5687 7.3375 15.0125 7.625L14.3 8L14.3312 7.83125C14.475 7.1375 14.575 6.30625 14.5375 6.15625C14.5125 6.03125 14.2812 5.7625 13.8688 5.375L13.2438 4.775L14.0563 4.6625C14.5625 4.5875 14.9375 4.50625 15.0563 4.43125C15.2 4.34375 15.3438 4.11875 15.6063 3.59375C15.8063 3.2 15.9813 2.875 16 2.875C16.0188 2.875 16.1937 3.2 16.3938 3.59375Z" fill="#232A39"/>
<path d="M3.15625 6.29374C2.93125 6.34999 2.7 6.56249 2.63125 6.76874C2.58125 6.90624 2.58125 7.34999 2.625 8.21874C2.65625 8.90624 2.6875 9.53124 2.6875 9.60624C2.6875 9.71874 2.4375 9.93749 1.56875 10.5875C0.95 11.05 0.40625 11.4937 0.35 11.575C0.29375 11.6562 0.25 11.8437 0.25 12.0187C0.25 12.2812 0.28125 12.3562 0.45 12.525C0.63125 12.7 0.825 12.7687 1.9875 13.0875C2.71875 13.2937 3.3375 13.4875 3.36875 13.525C3.39375 13.5625 3.625 14.1937 3.875 14.925C4.2625 16.0562 4.35625 16.275 4.5125 16.3812C4.7375 16.5437 5.18125 16.5625 5.40625 16.4125C5.49375 16.3562 5.91875 15.775 6.35 15.125L7.14375 13.9437L8.63125 13.925L10.125 13.9062L10.3125 13.7187C10.5125 13.5125 10.6062 13.1875 10.5375 12.9125C10.5188 12.8312 10.1062 12.2625 9.625 11.65C9.14375 11.0375 8.75625 10.5062 8.775 10.4625C8.9375 10.0375 9.5625 7.88124 9.5625 7.73749C9.5625 7.31874 9.225 6.99999 8.7875 6.99999C8.66875 6.99999 7.99375 7.21249 7.2875 7.47499L6.00625 7.94999L4.89375 7.16249C3.6 6.25624 3.50625 6.20624 3.15625 6.29374ZM4.95 9.14374C5.2875 9.37499 5.65 9.58749 5.7625 9.60624C5.9125 9.62499 6.1875 9.55624 6.75 9.35624C7.18125 9.19999 7.5375 9.07499 7.54375 9.08749C7.55 9.09374 7.4625 9.40624 7.34375 9.78124C7.225 10.1625 7.125 10.5937 7.125 10.75C7.125 11.0125 7.16875 11.0875 7.625 11.6687C7.9 12.0187 8.125 12.3125 8.125 12.3312C8.125 12.3437 7.74375 12.3687 7.28125 12.3875C6.64375 12.4125 6.4 12.4437 6.28125 12.525C6.19375 12.5812 5.91875 12.9375 5.66875 13.3125L5.2125 13.9937L5.0375 13.45C4.75625 12.5937 4.59375 12.2687 4.39375 12.1687C4.3 12.1187 3.9375 12 3.59375 11.9062C3.25 11.8125 2.93125 11.7187 2.8875 11.6937C2.825 11.6625 2.98125 11.5125 3.36875 11.225C3.68125 10.9937 4.0125 10.7125 4.1 10.6062C4.2625 10.4125 4.2625 10.4062 4.2375 9.51874C4.21875 8.90624 4.23125 8.64374 4.275 8.67499C4.3125 8.69374 4.61875 8.90624 4.95 9.14374Z" fill="#232A39"/>
<path d="M28.3813 6.31874C28.2938 6.34999 27.725 6.73124 27.1125 7.16249L25.9938 7.94999L24.7125 7.47499C24.0063 7.21249 23.3313 6.99999 23.2125 6.99999C22.775 6.99999 22.4375 7.31874 22.4375 7.73749C22.4375 7.83749 22.6188 8.50624 22.8438 9.21874C23.0625 9.93749 23.225 10.55 23.2063 10.5875C23.1813 10.625 22.8375 11.0625 22.4438 11.5625C22.05 12.0562 21.6625 12.5625 21.5813 12.6812C21.3938 12.9625 21.3875 13.3562 21.575 13.5937C21.8188 13.9062 22 13.9375 23.4875 13.9375H24.8563L25.6438 15.125C26.0813 15.775 26.5063 16.3562 26.5938 16.4125C26.8188 16.5625 27.2625 16.5437 27.4875 16.3812C27.6438 16.2687 27.7375 16.0625 28.1188 14.9562C28.3625 14.2375 28.5875 13.6125 28.6125 13.5625C28.65 13.5062 29.225 13.3125 30.0375 13.0812C31.25 12.7437 31.425 12.675 31.575 12.5062C31.7125 12.35 31.75 12.25 31.75 12.0125C31.75 11.8437 31.7063 11.6562 31.65 11.575C31.5938 11.4937 31.05 11.05 30.4313 10.5875C29.5625 9.93749 29.3125 9.71874 29.3125 9.60624C29.3125 9.53124 29.3438 8.90624 29.375 8.21874C29.4438 6.84374 29.4188 6.64374 29.1313 6.44374C28.9188 6.29374 28.575 6.23749 28.3813 6.31874ZM27.7625 9.51874C27.7375 10.4062 27.7375 10.4125 27.9 10.6062C27.9875 10.7125 28.3188 10.9937 28.6313 11.225C29.0188 11.5125 29.175 11.6625 29.1125 11.6937C29.0688 11.7187 28.75 11.8125 28.4063 11.9062C28.0625 12 27.7 12.1187 27.6063 12.1687C27.4063 12.2687 27.2438 12.5937 26.9625 13.45L26.7875 13.9937L26.3313 13.3125C26.0813 12.9375 25.8063 12.5812 25.7188 12.525C25.6 12.4437 25.3563 12.4125 24.7188 12.3875C24.2563 12.3687 23.875 12.3437 23.875 12.3312C23.875 12.3125 24.1 12.0187 24.375 11.6687C24.8313 11.0875 24.875 11.0125 24.875 10.75C24.875 10.5937 24.775 10.1625 24.6563 9.78124C24.5375 9.40624 24.45 9.08749 24.4625 9.08124C24.4688 9.06874 24.825 9.19374 25.2563 9.34999C25.8125 9.55624 26.0875 9.62499 26.2313 9.60624C26.35 9.58749 26.7313 9.36249 27.1125 9.09999C27.4813 8.83749 27.7813 8.62499 27.7875 8.62499C27.7875 8.62499 27.775 9.02499 27.7625 9.51874Z" fill="#232A39"/>
<path d="M15.4625 11.9625L15.25 12.175V14.225V16.2812L14.575 17.375L13.9062 18.4688L13.0938 19.0125L12.2812 19.55L12.25 19.0813C12.2188 18.65 12.2 18.6 12.0125 18.4312L11.8125 18.25H8.99375H6.175L5.9625 18.4625L5.75 18.675V25V31.325L5.9625 31.5375L6.175 31.75H8.9875H11.8063L11.975 31.6063L12.1438 31.4625L12.5438 31.6063L12.9437 31.75H18.4688C23.9813 31.75 23.9937 31.75 24.3563 31.6125C24.8563 31.4313 25.4312 30.8562 25.6125 30.3562C25.8062 29.85 25.8 29.1 25.6063 28.6187L25.4625 28.2687L25.725 27.975C26.0938 27.5687 26.25 27.125 26.25 26.4812C26.25 26.0938 26.2125 25.8875 26.1063 25.6188L25.9625 25.2687L26.225 24.975C26.8625 24.275 26.9438 23.05 26.4 22.2312L26.25 22L26.4 21.7625C26.7812 21.1937 26.8687 20.3187 26.6125 19.6438C26.4312 19.1438 25.8563 18.5687 25.3563 18.3875C25.0063 18.2562 24.9062 18.25 22.375 18.25H19.75V16.4187C19.75 14.7937 19.7375 14.525 19.625 14.1C19.4625 13.4625 19.2438 13.075 18.8125 12.6625C18.175 12.0562 17.325 11.75 16.2625 11.75C15.675 11.75 15.675 11.75 15.4625 11.9625ZM17.35 13.5375C17.6625 13.6875 17.9812 14.075 18.1 14.45C18.1813 14.725 18.2063 15.175 18.2312 17.0625L18.2688 19.3438L18.4688 19.5437L18.675 19.75H21.5437C23.3 19.75 24.4937 19.775 24.6375 19.8125C25.3563 20.0125 25.3563 20.9875 24.6375 21.1875C24.5125 21.2188 24.0188 21.25 23.5438 21.25H22.675L22.4625 21.4625C22.275 21.65 22.25 21.7125 22.25 22C22.25 22.2875 22.275 22.35 22.4625 22.5375L22.675 22.75H23.5438C24.0188 22.75 24.5125 22.7812 24.6375 22.8125C25.15 22.9563 25.3563 23.5437 25.025 23.9313C24.8062 24.1937 24.5438 24.25 23.5438 24.25H22.675L22.4625 24.4625C22.275 24.65 22.25 24.7125 22.25 25C22.25 25.2875 22.275 25.35 22.4625 25.5375L22.675 25.75H23.2938C23.6313 25.75 24.0125 25.7812 24.1375 25.8125C24.65 25.9562 24.8563 26.5437 24.525 26.9313C24.3188 27.1813 24.0438 27.25 23.2938 27.25H22.675L22.4625 27.4625C22.275 27.65 22.25 27.7125 22.25 28C22.25 28.2875 22.275 28.35 22.4625 28.5375C22.6562 28.7313 22.7063 28.75 23.0438 28.75C23.5438 28.75 23.8375 28.8438 24.025 29.0687C24.3938 29.5062 24.1063 30.1313 23.4937 30.2188C23.3438 30.2375 20.9688 30.25 18.2188 30.2375C13.475 30.2188 13.2063 30.2125 13 30.1C12.6937 29.9375 12.5687 29.8188 12.4125 29.5312C12.2812 29.2875 12.2812 29.2313 12.2625 25.3688L12.2438 21.4563L13.575 20.5938C14.975 19.6812 15.225 19.4937 15.2875 19.2875C15.3125 19.2188 15.65 18.6438 16.0375 18.0062L16.75 16.85V15.1062V13.3562L16.9438 13.4C17.05 13.4187 17.2312 13.4812 17.35 13.5375ZM10.75 25V30.25H9H7.25V25V19.75H9H10.75V25Z" fill="#232A39"/>
<path d="M8.4625 28.525C8.275 28.7125 8.25 28.775 8.25 29.0625C8.25 29.35 8.275 29.4125 8.4625 29.6C8.65 29.7875 8.7125 29.8125 9 29.8125C9.2875 29.8125 9.35 29.7875 9.5375 29.6C9.725 29.4125 9.75 29.35 9.75 29.0625C9.75 28.775 9.725 28.7125 9.5375 28.525C9.35 28.3375 9.2875 28.3125 9 28.3125C8.7125 28.3125 8.65 28.3375 8.4625 28.525Z" fill="#232A39"/>
</g>
<defs>
<clipPath id="clip0_477_61434">
<rect width="32" height="32" fill="white"/>
</clipPath>
</defs>
</svg>
