<svg width="32" height="32" viewBox="0 0 32 32" fill="none" xmlns="http://www.w3.org/2000/svg">
<path d="M6.78129 0.11875C6.46254 0.268749 6.10004 0.643749 5.96254 0.96875C5.81879 1.3125 5.83129 1.90625 5.98129 2.25625C6.24379 2.85 6.76254 3.175 7.53129 3.23125L7.98129 3.26875L8.01879 4.43125C8.09379 7.11875 8.86254 9.56875 10.3313 11.7812C10.8375 12.5437 11.2563 13.0625 12.2 14.075C12.6375 14.5437 13.0313 15.0063 13.0813 15.1062C13.1313 15.2 13.2063 15.4438 13.25 15.6375C13.325 16.0312 13.2625 16.55 13.0813 16.8938C13.0313 16.9937 12.6375 17.4563 12.2 17.925C11.2563 18.9375 10.8375 19.4563 10.3313 20.2188C8.86254 22.4312 8.09379 24.8812 8.01879 27.5687L7.98129 28.7313L7.53129 28.7687C6.76254 28.825 6.24379 29.15 5.98129 29.7437C5.83129 30.0938 5.81879 30.6875 5.96254 31.0312C6.10004 31.3562 6.46254 31.7312 6.78129 31.8813C7.01879 31.9937 7.38754 32 16 32C24.6125 32 24.9813 31.9937 25.2188 31.8813C25.5375 31.7312 25.9 31.3562 26.0375 31.0312C26.1813 30.6875 26.1688 30.0938 26.0188 29.7437C25.7563 29.15 25.2375 28.825 24.4688 28.7687L24.0188 28.7313L23.9813 27.5687C23.9313 25.7812 23.6188 24.275 22.9688 22.6687C22.2438 20.9062 21.3563 19.575 19.7625 17.8812C18.9438 17.0188 18.8625 16.8875 18.75 16.3562C18.6688 15.9625 18.7438 15.45 18.925 15.0938C18.975 14.9875 19.3563 14.55 19.7625 14.1187C21.3563 12.425 22.2438 11.0938 22.9688 9.33125C23.6188 7.725 23.9313 6.21875 23.9813 4.43125L24.0188 3.26875L24.4688 3.23125C25.2375 3.175 25.7563 2.85 26.0188 2.25625C26.1688 1.90625 26.1813 1.3125 26.0375 0.96875C25.9 0.643749 25.5375 0.268749 25.2188 0.11875C24.9813 0.00625038 24.6125 0 16 0C7.38754 0 7.01879 0.00625038 6.78129 0.11875ZM24.8563 1.2625C25.1188 1.50625 25.025 1.9375 24.6813 2.05625C24.4 2.15625 7.60004 2.15625 7.31879 2.05625C6.98129 1.9375 6.88754 1.5375 7.13754 1.26875L7.26879 1.125H15.9938H24.7125L24.8563 1.2625ZM22.875 4.09375C22.875 6.49375 22.1063 9.04375 20.7688 11.0625C20.2063 11.9125 19.8438 12.3562 18.9375 13.3188C17.8375 14.4875 17.6 14.9562 17.6 16C17.6 17.0437 17.8375 17.5125 18.9375 18.6812C19.8438 19.6438 20.2063 20.0875 20.7688 20.9375C22.1063 22.9563 22.875 25.5062 22.875 27.9062V28.75H16H9.12504V27.9062C9.12504 25.5062 9.89379 22.9563 11.2313 20.9375C11.7875 20.1 12.125 19.6812 13.0813 18.6562C14.1875 17.4688 14.4 17.0437 14.4 16C14.4 14.9562 14.1625 14.4875 13.0625 13.3188C12.1563 12.3562 11.7938 11.9125 11.2313 11.0625C9.89379 9.04375 9.12504 6.49375 9.12504 4.09375V3.25H16H22.875V4.09375ZM24.6813 29.9437C25.0188 30.0625 25.1125 30.4625 24.8625 30.7312L24.7313 30.875H16.0063H7.28754L7.14379 30.7375C7.00004 30.6062 6.95629 30.3687 7.03754 30.1562C7.15004 29.875 6.98754 29.8812 15.975 29.875C22.0313 29.875 24.5375 29.8937 24.6813 29.9437Z" fill="#232A39"/>
<path d="M13.3376 7.18125C12.7438 7.325 12.1126 7.85625 11.8626 8.41875C11.6438 8.91875 11.6751 9.20625 12.0188 9.78125C12.5438 10.6562 13.0813 11.3562 13.8938 12.225C14.9563 13.3563 15.3126 14.0375 15.4126 15.1125C15.4751 15.8187 15.5938 16 16.0001 16C16.4063 16 16.5251 15.8187 16.5876 15.1125C16.6126 14.8813 16.6876 14.5 16.7563 14.2687C17.0126 13.4188 17.2251 13.1375 18.8126 11.5312C19.6876 10.6437 20.3501 9.925 20.4313 9.76875C20.6001 9.425 20.6063 9.00625 20.4376 8.79375C20.2751 8.5875 19.9688 8.5 19.3751 8.5C18.2751 8.49375 16.9001 8.275 16.1126 7.975C15.8813 7.89375 15.5001 7.70625 15.2688 7.5625C15.0376 7.425 14.7063 7.26875 14.5376 7.21875C14.2126 7.11875 13.6688 7.10625 13.3376 7.18125ZM14.5438 8.48125C15.9063 9.2125 16.5876 9.4125 18.2813 9.56875C18.6938 9.60625 19.0376 9.6375 19.0438 9.65C19.0501 9.65625 18.4688 10.25 17.7563 10.9688C16.9438 11.7937 16.3813 12.4125 16.2438 12.6375C16.1313 12.8375 16.0188 13 16.0001 13C15.9813 13 15.8751 12.8438 15.7626 12.6562C15.6438 12.4625 15.2688 12.0062 14.9188 11.6375C14.1126 10.7937 13.7876 10.4 13.3938 9.8125C12.8938 9.05625 12.8501 8.95625 12.9626 8.78125C13.3376 8.2125 13.8626 8.1125 14.5438 8.48125Z" fill="#232A39"/>
<path d="M15.5938 17.2188C15.4563 17.3563 15.4375 17.4188 15.4375 17.875C15.4375 18.3438 15.45 18.3938 15.6 18.5313C15.8187 18.7313 16.125 18.7375 16.35 18.5438C16.6313 18.3 16.6438 17.45 16.3625 17.1875C16.1625 17.0063 15.7875 17.0188 15.5938 17.2188Z" fill="#232A39"/>
<path d="M15.8125 19.7312C15.7625 19.75 15.6562 19.825 15.5812 19.8937C15.4563 20.0062 15.4375 20.0812 15.4375 20.5312C15.4375 20.9812 15.4563 21.0562 15.5812 21.175C15.7812 21.3625 16.0125 21.4 16.2375 21.2875C16.7 21.05 16.6812 19.9687 16.2125 19.775C15.9875 19.6812 15.9563 19.6812 15.8125 19.7312Z" fill="#232A39"/>
<path d="M14.0313 22.4375C13.1438 22.625 12.5126 23.0375 11.6376 24C10.6626 25.0688 10.3376 25.6875 10.1813 26.775C10.1188 27.2563 10.1438 27.4 10.3313 27.6063L10.4563 27.75H16.0001H21.5438L21.6938 27.5875C21.8251 27.45 21.8438 27.375 21.8313 27.0188C21.8126 26.55 21.6251 25.8063 21.4126 25.3875C21.1813 24.925 20.7626 24.4 20.0876 23.7125C19.4376 23.05 19.1251 22.8313 18.4438 22.5688C18.0376 22.4125 18.0001 22.4125 16.1563 22.4C15.1251 22.3875 14.1688 22.4063 14.0313 22.4375ZM18.1376 23.675C18.6063 23.8625 19.0063 24.1938 19.6563 24.925C20.1626 25.4938 20.5063 26.05 20.6001 26.45L20.6376 26.625H16.0001H11.3626L11.4001 26.45C11.5001 26.0438 11.8376 25.4938 12.3626 24.9063C13.5626 23.5625 13.7376 23.4938 16.1251 23.5188C17.6813 23.5313 17.8001 23.5438 18.1376 23.675Z" fill="#232A39"/>
</svg>
