<svg width="32" height="32" viewBox="0 0 32 32" fill="none" xmlns="http://www.w3.org/2000/svg">
<g clip-path="url(#clip0_477_61421)">
<path d="M11.25 0.0562372C10.775 0.199987 10.3188 0.556237 10.025 0.999988C9.73755 1.43749 9.68755 1.82499 9.68755 3.66874V5.37499H6.20005C2.36255 5.37499 2.3813 5.37499 1.9188 5.75624C1.7938 5.86249 1.61255 6.08124 1.51255 6.23749L1.3438 6.53124L1.32505 9.15624C1.3063 11.4812 1.3188 11.8125 1.41255 12.0562C1.5438 12.4 1.8188 12.7125 2.1813 12.925C2.4563 13.0875 2.5063 13.0937 3.50005 13.1125L4.5313 13.1375L5.1313 13.7187C5.73755 14.3187 5.92505 14.4375 6.2563 14.4375C6.5313 14.4375 6.65005 14.3562 7.3313 13.7062L7.95005 13.125L8.8938 13.1187C9.4563 13.1187 9.92505 13.0875 10.0438 13.0437C10.4188 12.9062 10.775 12.5937 10.9688 12.2437C11.1563 11.9125 11.1563 11.8875 11.175 10.8437L11.2 9.78124L12.5813 9.79999C13.475 9.81874 14.0125 9.84999 14.1 9.89374C14.175 9.93749 14.4813 10.25 14.7875 10.5937C15.4375 11.3312 15.4625 11.35 15.7625 11.4437C16.2375 11.5937 16.3938 11.5062 17.25 10.6187L18.0313 9.81249H19.2813C19.9688 9.81249 20.5938 9.79374 20.675 9.77499L20.8125 9.73749V10.7312C20.8125 11.9375 20.8813 12.2 21.3125 12.625C21.7313 13.05 22.0063 13.125 23.1438 13.125H24.0813L24.7125 13.75C25.6625 14.6812 25.8313 14.6812 26.825 13.75L27.4875 13.125H28.3875C29.4875 13.125 29.7688 13.05 30.1875 12.625C30.6813 12.1375 30.6875 12.1 30.6813 9.22499C30.6813 7.46874 30.6563 6.65624 30.6063 6.51874C30.4688 6.14374 30.1563 5.78749 29.8063 5.59374L29.4688 5.40624L25.925 5.38749L22.375 5.36874V3.76249C22.375 2.04374 22.325 1.58124 22.0938 1.12499C21.9188 0.781238 21.5 0.374988 21.125 0.181237C20.8438 0.0312376 20.825 0.0312376 18.4875 0.0124874C16.1813 -0.00626278 16.125 -1.23978e-05 16 0.124988C15.85 0.274987 15.8313 0.606237 15.9625 0.787488C16.05 0.899987 16.1688 0.906238 18.2625 0.937488C20.6688 0.968738 20.65 0.968738 21.0063 1.35624C21.35 1.72499 21.3438 1.63124 21.3625 4.71874C21.3813 7.78124 21.3688 7.98749 21.0875 8.36249C20.775 8.76874 20.5875 8.81249 19.2313 8.81249C17.6625 8.81249 17.5188 8.84999 16.975 9.42499C16.7625 9.65624 16.4563 9.98124 16.3 10.15L16.025 10.4562L15.4438 9.79374C14.6125 8.84374 14.6313 8.84999 12.8625 8.81249L11.45 8.78124L11.2063 8.58749C10.7 8.17499 10.7188 8.33124 10.7 5.04374C10.6875 3.09374 10.7063 2.04374 10.75 1.87499C10.7875 1.73749 10.9063 1.52499 11.0125 1.39999C11.375 0.987488 11.4375 0.974988 13.0125 0.949987C14.325 0.924988 14.4375 0.918737 14.5375 0.806237C14.6813 0.643738 14.6813 0.293737 14.5313 0.124988C14.425 0.00623798 14.3563 -1.23978e-05 12.9125 0.00623798C12.0813 0.00623798 11.3375 0.0312376 11.25 0.0562372ZM9.6938 7.26874C9.7188 8.15624 9.7188 8.16874 9.9563 8.63749L10.1875 9.11249V10.3062C10.1875 12.1 10.1688 12.125 8.7438 12.125C8.2313 12.125 7.75005 12.1562 7.6063 12.2C7.4313 12.25 7.1813 12.4375 6.81255 12.7937C6.51255 13.0812 6.23755 13.3125 6.2063 13.3125C6.1813 13.3125 5.9438 13.1 5.68755 12.8375C5.01255 12.1562 5.0313 12.1625 3.76255 12.125L2.67505 12.0937L2.4938 11.8875L2.31255 11.6875V9.30624C2.31255 7.30624 2.32505 6.89999 2.4063 6.74999C2.60005 6.37499 2.5188 6.38124 6.2563 6.37499H9.67505L9.6938 7.26874ZM29.3125 6.46874C29.6813 6.66249 29.6875 6.70624 29.6875 9.24999C29.6875 11.7937 29.6813 11.8375 29.3125 12.0312C29.175 12.1 28.9125 12.125 28.2188 12.125C27.5563 12.125 27.25 12.15 27.0875 12.2187C26.9688 12.2687 26.6125 12.5375 26.3063 12.8187L25.75 13.3312L25.1938 12.7937C24.8063 12.4187 24.5688 12.2375 24.4 12.1937C24.2625 12.1562 23.7563 12.125 23.2625 12.125C21.825 12.125 21.8125 12.1062 21.8125 10.3562V9.13749L22.025 8.78749C22.2813 8.36249 22.375 7.88749 22.375 7.01249V6.37499H25.75C28.65 6.37499 29.1563 6.38749 29.3125 6.46874Z" fill="#232A39"/>
<path d="M4.71875 7.68124C4.40625 7.82499 4.0375 8.20624 3.90625 8.51249C3.85625 8.64374 3.8125 8.93124 3.8125 9.17499C3.8125 9.53124 3.84375 9.67499 4 9.98749C4.2375 10.4625 4.88125 11.075 5.54375 11.4687C5.95625 11.7125 6.06875 11.7562 6.2875 11.7312C6.65 11.6937 7.45625 11.1562 7.9875 10.6C8.48125 10.075 8.6875 9.63749 8.6875 9.10624C8.6875 8.51249 8.2625 7.88124 7.7125 7.64999C7.43125 7.53124 6.75625 7.53749 6.46875 7.66249C6.25625 7.74999 6.2125 7.74999 5.99375 7.66249C5.65625 7.52499 5.03125 7.53749 4.71875 7.68124ZM5.76875 8.69374C6.04375 8.90624 6.325 8.91249 6.65 8.72499C7.025 8.50624 7.275 8.51249 7.50625 8.74374C7.80625 9.04999 7.7375 9.38124 7.26875 9.88749C7.1 10.0625 6.80625 10.3125 6.60625 10.45L6.24375 10.6937L5.98125 10.5437C5.30625 10.1437 4.8125 9.56249 4.8125 9.17499C4.8125 8.66874 5.38125 8.38124 5.76875 8.69374Z" fill="#232A39"/>
<path d="M24.2751 7.65C23.4814 8 23.1126 8.95625 23.4376 9.8375C23.6001 10.2687 24.1564 10.875 24.7439 11.2687C25.6189 11.8625 25.7939 11.8687 26.5876 11.3562C27.8439 10.5312 28.3876 9.5875 28.1251 8.65625C28.0251 8.30625 27.6439 7.8625 27.2939 7.69375C26.9626 7.53125 26.3626 7.51875 26.0001 7.6625C25.7689 7.75625 25.7314 7.75625 25.5001 7.6625C25.1939 7.54375 24.5439 7.5375 24.2751 7.65ZM25.2876 8.7C25.4126 8.8 25.5501 8.84375 25.7501 8.84375C25.9501 8.84375 26.0876 8.8 26.2126 8.7C26.7439 8.2875 27.4314 8.89375 27.1001 9.4875C26.9751 9.71875 26.4564 10.2187 26.0876 10.475L25.7564 10.7062L25.4814 10.5375C25.0876 10.3125 24.5314 9.7875 24.4126 9.5375C24.2564 9.20625 24.2814 8.95625 24.4939 8.74375C24.7251 8.51875 25.0314 8.5 25.2876 8.7Z" fill="#232A39"/>
<path d="M14.0188 2.3625C13.4438 2.56875 13.0188 2.9625 12.7376 3.55C12.3938 4.26875 12.4876 5.1375 12.9938 5.91875C13.4313 6.5875 14.2126 7.275 15.1813 7.83125C15.9063 8.25 16.0688 8.2625 16.6063 7.96875C17.5751 7.4375 18.5813 6.58125 19.0376 5.89375C19.5438 5.13125 19.6501 4.23125 19.3188 3.53125C19.1001 3.0625 18.7251 2.68125 18.2626 2.45625C17.9501 2.30625 17.8313 2.28125 17.3438 2.28125C16.8438 2.28125 16.7376 2.3 16.4063 2.46875L16.0313 2.65625L15.6688 2.475C15.1938 2.2375 14.5063 2.1875 14.0188 2.3625ZM15.4626 3.525C15.7001 3.6875 15.8563 3.75 16.0313 3.75C16.2063 3.75 16.3626 3.6875 16.6001 3.525C17.0563 3.20625 17.4313 3.175 17.8563 3.4C18.4813 3.74375 18.6626 4.3625 18.3438 5.05625C18.1251 5.51875 17.4063 6.24375 16.6688 6.73125C15.9626 7.20625 16.0501 7.2125 15.2126 6.65625C14.6063 6.25 13.8938 5.51875 13.6938 5.09375C13.4313 4.5375 13.5126 3.99375 13.9188 3.6125C14.3688 3.18125 14.9188 3.15 15.4626 3.525Z" fill="#232A39"/>
<path d="M13.2063 12.1C12.8876 12.2125 12.4251 12.6437 12.2688 12.9688C12.1751 13.1562 12.0938 13.2188 11.8313 13.3062C11.1938 13.5187 10.5876 14.15 10.4001 14.8C10.2376 15.35 10.3001 16.1375 10.5438 16.6375C10.7001 16.95 10.7501 17.1687 10.8063 17.7125C10.8938 18.5938 11.0563 18.9688 11.5688 19.45C11.9313 19.7875 11.9501 19.825 12.0376 20.2625C12.1063 20.6 12.1751 20.7562 12.2876 20.8562C12.6063 21.1438 13.0813 20.9625 13.0876 20.5562C13.0876 20.4375 13.0501 20.125 13.0001 19.8562C12.9376 19.525 12.9313 19.3375 12.9751 19.2688C13.0063 19.2125 13.2313 19.0625 13.4688 18.925C13.7126 18.7937 13.9813 18.6062 14.0688 18.5062C14.2126 18.35 14.2876 18.325 14.6938 18.3C15.3063 18.2625 15.9001 17.9812 16.3626 17.5188L16.7001 17.1812L17.0376 17.3125C17.2251 17.3812 17.5001 17.4375 17.6563 17.4375C17.8938 17.4375 17.9438 17.4625 18.0563 17.6375C18.1938 17.8687 18.5313 18.2 18.9001 18.4688L19.1438 18.6438L19.1063 19.2437C19.0438 20.2875 18.6813 21.3375 18.0938 22.1562C17.7563 22.6375 17.4001 22.9375 16.9001 23.1687C16.5876 23.3187 16.4501 23.3438 16.0001 23.3438C15.5251 23.3438 15.4251 23.325 15.0438 23.1375C14.7501 22.9937 14.4876 22.7875 14.1688 22.4625C13.7876 22.075 13.6876 22 13.5126 22C13.2688 22 13.0001 22.2375 13.0001 22.45C13.0001 22.65 13.2001 22.9563 13.5626 23.3187L13.8751 23.6312V24.4875V25.35L12.3001 25.9938C10.6251 26.6813 10.4063 26.7875 10.0626 27.1L9.8438 27.3L8.92505 26.9187L8.00005 26.5375V25.8625V25.1875L8.31255 24.8625C8.7188 24.4375 9.0813 23.8812 9.3438 23.275C9.4813 22.9563 9.6063 22.7625 9.7063 22.7125C10.0251 22.5437 10.4938 21.3 10.5938 20.375C10.6876 19.4625 10.3501 18.475 9.73755 17.8938C9.30005 17.4812 8.85005 17.3125 8.20005 17.3125H7.7188L7.4563 17.0062C7.2938 16.8187 7.05005 16.6312 6.8313 16.5188C6.4938 16.3562 6.4188 16.3438 5.7188 16.3438C5.05005 16.35 4.9188 16.3687 4.50005 16.525C3.7563 16.8062 3.56255 16.9625 3.56255 17.2562C3.56255 17.3438 3.62505 17.5 3.6938 17.5938C3.81255 17.7375 3.86255 17.7562 4.08755 17.7312C4.2313 17.7188 4.52505 17.625 4.75005 17.5312C5.50005 17.2125 6.33755 17.2562 6.6563 17.6375C7.13755 18.2063 6.48755 19.4187 5.45005 19.8812C4.4938 20.3125 4.11255 20.5312 3.6438 20.9062L3.1563 21.3L3.1063 21.1312C3.0313 20.9125 3.02505 19.6937 3.08755 19.15C3.13755 18.725 3.13755 18.7 2.9938 18.6C2.7938 18.4625 2.4188 18.4688 2.28755 18.6187C2.13755 18.7812 2.00005 19.5062 2.00005 20.1562C2.00005 21.2 2.4063 22.5938 2.76255 22.7562C2.8563 22.7937 2.9813 22.9875 3.12505 23.3C3.38755 23.8875 3.83755 24.5687 4.1813 24.9062L4.43755 25.15V25.85V26.55L3.2688 27.0312C1.7938 27.6375 1.71255 27.6813 1.3938 28.0125C0.912551 28.5062 0.850051 28.7437 0.825051 30.0187C0.806301 31.05 0.812551 31.1438 0.937551 31.4062C1.0313 31.6 1.16255 31.7375 1.33755 31.8438L1.6063 32H16.0001H30.3876L30.6188 31.8687C30.7438 31.8 30.9188 31.6437 31.0001 31.5187C31.1501 31.2937 31.1563 31.2625 31.1563 30.1C31.1563 29.0312 31.1438 28.8812 31.0313 28.6562C30.9126 28.4188 30.9063 28.2437 30.8751 24.4688C30.8438 20.5437 30.8438 20.5312 30.6938 20.0938C30.0438 18.15 28.5626 16.85 26.6001 16.5062C25.7501 16.3562 24.5563 16.4937 23.7813 16.8375C23.2813 17.0625 23.1876 17.1562 23.1876 17.45C23.1876 17.9312 23.5313 18.0562 24.1313 17.7875C26.3188 16.825 28.9188 18 29.7063 20.3125C29.8376 20.7063 29.8438 20.8062 29.8626 24.1125L29.8813 27.5062L29.6438 27.4062C29.5126 27.35 28.9938 27.1312 28.4876 26.925L27.5626 26.55V26.1125C27.5626 25.6813 27.5688 25.6687 27.8376 25.375C28.3501 24.8 28.8126 23.8875 29.0313 23.025C29.1813 22.4312 29.1688 21.3687 29.0063 20.7375C28.7188 19.6375 28.0376 18.7625 27.1688 18.3875C26.7626 18.2125 26.5126 18.3938 26.3126 19.0125C26.0438 19.8438 25.3938 20.6062 24.6188 20.9812C24.4001 21.0875 23.8813 21.25 23.4688 21.3438C23.0626 21.4375 22.6751 21.5312 22.6188 21.5625C22.3501 21.7125 22.3188 22.275 22.5376 23.1562C22.6813 23.725 23.2563 24.85 23.6501 25.325C23.9938 25.7375 24.0001 25.7562 24.0001 26.1437V26.5375L23.0813 26.9187L22.1688 27.2937L21.8938 27.0375L21.6251 26.7812V24.0938C21.6251 22.525 21.6563 21.2375 21.6938 21.0062C21.7813 20.4312 21.9688 19.9125 22.2626 19.425C22.4626 19.0875 22.5063 18.9625 22.4688 18.8313C22.4001 18.5562 22.2563 18.4375 21.9876 18.4375C21.6751 18.4375 21.5126 18.6062 21.1813 19.2812C20.6876 20.2875 20.6688 20.425 20.6313 23.5687L20.5938 26.35L19.3626 25.85L18.1251 25.3438V24.4938V23.65L18.3501 23.4312C19.2001 22.6187 19.8001 21.3875 20.0501 19.925C20.1501 19.3375 20.1813 19.2625 20.4001 19.0312C20.7251 18.6812 20.9626 18.25 21.1938 17.5625C21.3563 17.0687 21.3813 16.9062 21.3563 16.5875C21.3188 16.0813 21.0626 15.6125 20.6751 15.3188C20.3876 15.1062 20.3751 15.0875 20.3751 14.7812C20.3751 14.6062 20.3313 14.325 20.2751 14.1625C20.1376 13.7687 19.6688 13.3 19.2751 13.1625C18.9376 13.05 18.2813 13.0312 18.0251 13.125C17.8813 13.1812 17.8438 13.175 17.7938 13.0875C17.6563 12.8438 17.3001 12.5125 16.9876 12.3438C16.5626 12.1125 15.8001 12.05 15.3188 12.2125C15.0126 12.3125 15.0001 12.3062 14.7376 12.175C14.3938 11.9937 13.6001 11.9562 13.2063 12.1ZM14.2688 13.075C14.3438 13.1125 14.4688 13.2062 14.5438 13.2875C14.6188 13.3687 14.7501 13.45 14.8438 13.475C15.0063 13.5125 15.0813 13.4875 15.5001 13.25C15.7938 13.0812 16.2626 13.0812 16.5376 13.2563C16.8126 13.425 16.9751 13.6625 17.0688 14.025C17.1063 14.1875 17.2001 14.3562 17.2688 14.4062C17.4626 14.5437 17.7751 14.525 17.9126 14.3687C18.3251 13.9125 19.0126 13.9625 19.2876 14.4688C19.3876 14.6625 19.3876 14.75 19.2751 15.3813C19.2188 15.7062 19.3188 15.8375 19.7376 15.9937C20.4438 16.25 20.5251 16.625 20.0813 17.6375L19.9251 17.9875L19.4563 17.6062C19.0938 17.3187 18.9438 17.15 18.8313 16.9C18.6251 16.4437 18.5626 16.4062 18.0313 16.425C17.4876 16.4437 17.3563 16.4 17.0188 16.0687C16.8126 15.8687 16.7063 15.8125 16.5376 15.8125C16.2813 15.8125 16.1688 15.9125 16.0126 16.2688C15.8438 16.6562 15.5438 16.9688 15.1751 17.15C14.8938 17.2937 14.7688 17.3125 14.2501 17.3125C13.5938 17.3125 13.5438 17.3375 13.3876 17.7C13.3376 17.8187 13.1813 17.9375 12.8938 18.0875C12.6626 18.2 12.3938 18.375 12.3063 18.4625L12.1376 18.6312L12.0126 18.425C11.8626 18.1812 11.7501 17.575 11.7501 16.9937C11.7501 16.6875 11.7188 16.5437 11.6313 16.4312C11.4063 16.1375 11.3126 15.8813 11.3126 15.5312C11.3126 14.8188 11.8126 14.2687 12.5688 14.1625C12.8938 14.1125 13.0313 14 13.1001 13.7188C13.1751 13.4062 13.3063 13.1938 13.4876 13.1C13.6938 12.9875 14.0813 12.975 14.2688 13.075ZM8.9188 18.5375C9.50005 19.0125 9.7188 19.7312 9.53755 20.625C9.3688 21.4375 9.37505 21.4312 8.91255 21.0375C8.6938 20.8562 8.35005 20.5875 8.1438 20.45C7.9313 20.3062 7.66255 20.075 7.5438 19.9312L7.32505 19.675L7.5313 19.2625C7.65005 19.0375 7.76255 18.725 7.78755 18.575L7.8313 18.3L8.2563 18.325C8.6188 18.3438 8.7188 18.375 8.9188 18.5375ZM27.7688 20.3C28.1626 21.0312 28.2501 22.1687 27.9751 23.0375C27.7501 23.725 27.3751 24.3688 26.9001 24.875C26.4626 25.3312 26.0876 25.5625 25.7563 25.5625C25.0563 25.5625 23.9876 24.35 23.5938 23.1062C23.3626 22.3812 23.3438 22.4125 24.0188 22.2562C24.9251 22.0437 25.5563 21.7 26.1938 21.0625C26.5751 20.6812 26.7938 20.4 26.9626 20.075L27.2001 19.6125L27.4063 19.8125C27.5188 19.9187 27.6813 20.1438 27.7688 20.3ZM7.4938 21.2312C8.18755 21.725 8.62505 22.125 8.62505 22.2688C8.6188 22.4812 8.30005 23.1812 8.0188 23.5938C7.8813 23.8 7.5938 24.1312 7.38755 24.3312C6.55005 25.125 5.9313 25.1312 5.08755 24.3562C4.8938 24.1813 4.62505 23.8687 4.4813 23.6625C4.1938 23.2375 3.81255 22.4125 3.81255 22.2125C3.81255 21.9812 4.51255 21.4688 5.4688 21C5.95005 20.7688 6.40005 20.5312 6.4688 20.4812C6.5813 20.3938 6.6063 20.4062 6.8313 20.6625C6.9688 20.8187 7.26255 21.075 7.4938 21.2312ZM15.3751 24.3187C15.7063 24.4 16.3626 24.3812 16.7688 24.2875L17.1251 24.2062V24.85V25.5L16.8938 25.65C16.3626 25.9938 15.7688 26.0062 15.2001 25.6875L14.8751 25.5V24.8375C14.8751 24.1813 14.8751 24.1813 15.0188 24.225C15.0938 24.25 15.2563 24.2937 15.3751 24.3187ZM6.25005 25.9062C6.5063 25.9062 6.7813 25.8812 6.86255 25.8562C7.0063 25.8 7.0063 25.8063 6.98755 26.2562C6.9688 26.7 6.96255 26.7125 6.75005 26.8375C6.61255 26.9187 6.42505 26.9625 6.2188 26.9625C6.01255 26.9625 5.82505 26.9187 5.68755 26.8375C5.47505 26.7125 5.4688 26.7 5.45005 26.2625L5.4313 25.8063L5.6063 25.8562C5.70005 25.8812 5.9938 25.9062 6.25005 25.9062ZM14.5126 26.4688C15.4501 27.1062 16.5688 27.075 17.6626 26.375C17.7813 26.3 17.8438 26.3125 18.1313 26.4313C18.3188 26.5125 18.4751 26.5812 18.4876 26.5938C18.4938 26.6 18.3876 26.775 18.2501 26.9875C17.8501 27.5875 17.4501 28.4125 17.2251 29.125C17.0001 29.8062 16.8126 30.6313 16.8126 30.9062V31.0625H16.0063H15.2063L15.1626 30.6812C15.0438 29.6437 14.5063 28.175 13.8751 27.175L13.5126 26.5938L13.8376 26.4562C14.2376 26.2812 14.2376 26.2812 14.5126 26.4688ZM25.7813 26.5312C26.0251 26.5312 26.3001 26.5062 26.4001 26.475L26.5813 26.4187L26.5438 27.5687C26.5251 28.2687 26.4688 28.9188 26.4063 29.2188C26.3126 29.6937 26.0501 30.3438 25.8501 30.6313C25.7626 30.7563 25.7563 30.75 25.5688 30.4312C25.1688 29.7313 25.0001 28.8375 25.0001 27.3688V26.4375L25.1751 26.4812C25.2688 26.5125 25.5438 26.5312 25.7813 26.5312ZM12.8626 27.4812C13.2688 28.1063 13.6251 28.8375 13.8376 29.4688C14.0001 29.9688 14.1876 30.75 14.1876 30.95C14.1876 31.0562 14.0563 31.0625 12.2438 31.0625H10.3063L10.3251 29.7625C10.3438 28.5812 10.3563 28.45 10.4813 28.2188C10.6876 27.8312 10.8688 27.7 11.7001 27.3438C12.1188 27.1562 12.4876 27.0062 12.5063 27.0062C12.5313 27 12.6876 27.2188 12.8626 27.4812ZM20.2688 27.3125C21.0938 27.6562 21.3751 27.8688 21.5688 28.2812C21.6688 28.5 21.6876 28.7 21.6876 29.7938V31.0625H19.7501C17.9438 31.0625 17.8126 31.0562 17.8126 30.95C17.8188 30.4937 18.2376 29.15 18.6063 28.4062C18.8126 28 19.4313 27 19.4876 27C19.5001 27 19.8501 27.1437 20.2688 27.3125ZM5.13755 27.6875C5.8938 28.1 6.77505 28.0625 7.50005 27.5938C7.65005 27.4938 7.68755 27.5062 8.5188 27.8438C9.70005 28.3375 9.7188 28.2125 8.20005 29.9625L7.2438 31.0625H6.2313H5.2188L4.18755 29.675C3.6188 28.9062 3.1563 28.2562 3.1563 28.225C3.1563 28.1875 4.60005 27.5375 4.7563 27.5062C4.77505 27.5 4.9438 27.5875 5.13755 27.6875ZM24.0688 28.8625C24.1501 29.5875 24.3188 30.2125 24.5626 30.6938L24.7501 31.0625H23.7188H22.6876V29.7625C22.6876 29.05 22.6688 28.4125 22.6501 28.3375C22.6188 28.225 22.6938 28.175 23.2938 27.9313L23.9688 27.65L23.9813 27.9625C23.9938 28.1375 24.0313 28.5438 24.0688 28.8625ZM28.6626 28.1C29.7376 28.5375 30.0188 28.7375 30.1251 29.125C30.2126 29.4437 30.2063 30.8937 30.1126 30.9875C30.0563 31.0437 29.6001 31.0625 28.4313 31.0625H26.8251L27.0438 30.5625C27.3001 29.9625 27.4688 29.2 27.5313 28.325C27.5563 27.975 27.5938 27.6875 27.6188 27.6875C27.6501 27.6875 28.1126 27.8688 28.6626 28.1ZM3.08755 29.9062L3.9313 31.0312L2.9563 31.05C2.2938 31.0625 1.9563 31.0437 1.90005 30.9937C1.7938 30.9062 1.77505 29.3563 1.8813 29.0812C1.96255 28.8563 2.1313 28.6688 2.1938 28.7313C2.2188 28.7625 2.62505 29.2875 3.08755 29.9062ZM9.2938 31.0437C9.27505 31.0562 9.1188 31.0625 8.95005 31.05L8.6313 31.0312L8.9563 30.6437L9.2813 30.2563L9.30005 30.6375C9.31255 30.8438 9.3063 31.025 9.2938 31.0437Z" fill="#232A39"/>
</g>
<defs>
<clipPath id="clip0_477_61421">
<rect width="32" height="32" fill="white"/>
</clipPath>
</defs>
</svg>
