<svg width="32" height="32" viewBox="0 0 32 32" fill="none" xmlns="http://www.w3.org/2000/svg">
<g clip-path="url(#clip0_477_61370)">
<path d="M30.75 0.199999C31.2063 0.375 31.6937 0.86875 31.8687 1.34375L32 1.69375V13.4875V25.2812L31.8187 25.6562C31.6 26.125 31.2562 26.4688 30.8125 26.6813C30.4812 26.8375 30.4125 26.8438 29.2375 26.8625L28.0062 26.8875L27.8438 26.725C27.6562 26.5375 27.6375 26.2625 27.8063 26.0563C27.925 25.9125 27.9562 25.9062 29.1063 25.875C30.2375 25.8438 30.3 25.8375 30.5187 25.6875C30.95 25.3937 31.025 25.1625 31.05 24.0437L31.075 23.0625H22.5375H14V23.4312V23.8L14.4062 23.825C14.725 23.8438 14.8438 23.8812 14.975 24C15.2625 24.275 15.3125 24.4437 15.3125 25.1875V25.875H20.4062H25.5062L25.6562 26.0312C25.875 26.2438 25.8688 26.5687 25.65 26.7438C25.4875 26.8688 25.4125 26.875 23.1812 26.875H20.875V27.6813V28.4937L21.7937 28.5125C22.6187 28.5312 22.75 28.55 23 28.675C23.675 29.025 23.9375 29.5062 23.9875 30.4438C24.025 31.2812 23.975 31.5812 23.7437 31.8125L23.55 32H16.0375C8.65625 32 8.5125 32 8.3625 31.875C8.09375 31.6687 8.05 31.4563 8.075 30.55C8.1 29.6125 8.175 29.4 8.60625 28.9813C8.99375 28.6 9.3625 28.5 10.3438 28.5H11.1875V28.2188V27.9375H6.7125C2.33125 27.9375 2.23125 27.9375 2.03125 27.8125C1.79375 27.6625 1.625 27.35 1.625 27.05C1.625 26.85 1.6 26.825 1.2875 26.6937C0.799999 26.4938 0.475 26.1875 0.237499 25.7L0.03125 25.2812L0.0124989 13.4875L0 1.69375L0.13125 1.33125C0.31875 0.84375 0.78125 0.38125 1.26875 0.199999L1.63125 0.0625L16.0188 0.0687504H30.4062L30.75 0.199999ZM1.65625 1.1375C1.40625 1.275 1.15 1.55 1.06875 1.76875C1.025 1.88125 1 2.6125 1 3.69375V5.4375H16H31V3.6875C31 2.35625 30.9812 1.8875 30.9125 1.73125C30.8188 1.49375 30.4375 1.1375 30.2312 1.1C30.1562 1.08125 30.0375 1.05625 29.9688 1.0375C29.9 1.025 23.5437 1.01875 15.8438 1.025C2.925 1.03125 1.83125 1.0375 1.65625 1.1375ZM1 14.25V22.0625H1.3125H1.625V20.6937C1.625 19.3812 1.63125 19.325 1.76875 19.1187C1.94375 18.85 2.26875 18.6875 2.60625 18.6875H2.875V18.2188V17.75H2.60625C2.26875 17.75 1.94375 17.5875 1.76875 17.3187C1.63125 17.1125 1.625 17.0562 1.625 15.675C1.625 14.0938 1.64375 14.0063 2.0125 13.7375C2.2125 13.6 2.26875 13.5938 3.68125 13.575C4.4875 13.5625 5.2125 13.5688 5.29375 13.5938C5.675 13.6875 5.8125 14.1375 5.55 14.4187C5.41875 14.5625 5.4 14.5625 4.01875 14.5625H2.625V15.6562V16.75H8.46875H14.3125V15.6562V14.5625H11.1125C7.9125 14.5625 7.9125 14.5625 7.76875 14.425C7.5875 14.2563 7.58125 13.9438 7.74375 13.7437L7.8625 13.5938L11.2 13.575L14.5312 13.5625L14.8062 13.7C15.2812 13.9438 15.3125 14.0625 15.3125 15.6562C15.3125 16.8438 15.3 17.0625 15.2 17.2437C15.0375 17.5687 14.8062 17.7063 14.375 17.7375L14 17.7625V18.2188V18.675L14.375 18.7C14.8062 18.7312 15.0375 18.8687 15.2 19.1937C15.3 19.375 15.3125 19.5938 15.3125 20.7312V22.0625H23.1875H31.0625V14.25V6.4375H16.0312H1V14.25ZM3.875 18.2188V18.6875H8.46875H13.0625V18.2188V17.75H8.46875H3.875V18.2188ZM2.625 20.7812V21.875H8.46875H14.3125V20.7812V19.6875H8.46875H2.625V20.7812ZM3.875 23.3438V23.8125H8.46875H13.0625V23.3438V22.875H8.46875H3.875V23.3438ZM1 23.95C1 25.0062 1.0625 25.2687 1.36875 25.5563L1.59375 25.7687L1.625 25.0563C1.65625 24.2875 1.7125 24.15 2.04375 23.9312C2.15625 23.8562 2.33125 23.8125 2.54375 23.8125H2.875V23.4375V23.0625H1.9375H1V23.95ZM2.625 25.875V26.9375H8.46875H14.3125V25.875V24.8125H8.46875H2.625V25.875ZM15.3125 27.075C15.3125 27.3375 15.1187 27.6562 14.8625 27.8125C14.675 27.925 14.5437 27.9375 13.4187 27.9375H12.1875V28.2188V28.5H16.0312H19.875V27.6875V26.875H17.5938H15.3125V27.075ZM9.4375 29.6C9.15 29.775 9.0625 29.9937 9.0625 30.5562V31.0625H16.0312H23V30.6187C23 30.0938 22.875 29.7875 22.6 29.6187C22.4125 29.5062 22.1562 29.5 16.0125 29.5C10.2 29.5 9.6 29.5125 9.4375 29.6Z" fill="#232A39"/>
<path d="M28.9188 1.88124C29.2688 1.96249 29.7125 2.36249 29.85 2.71874C30.0813 3.33124 29.85 4.05624 29.3188 4.41249C28.9875 4.63124 28.425 4.68124 28.0313 4.53749C27.4625 4.31874 27.0625 3.62499 27.1625 3.03749C27.3 2.18124 28.0625 1.68124 28.9188 1.88124ZM28.275 2.96249C28.05 3.18749 28.2188 3.62499 28.5375 3.62499C28.7313 3.62499 28.9375 3.41874 28.9375 3.22499C28.9375 2.90624 28.5 2.73749 28.275 2.96249Z" fill="#232A39"/>
<path d="M25.4188 1.88124C25.7688 1.96249 26.2125 2.36249 26.35 2.71874C26.5813 3.33124 26.35 4.05624 25.8188 4.41249C25.4875 4.63124 24.925 4.68124 24.5313 4.53749C24.1438 4.38749 23.7813 3.95624 23.6938 3.54999C23.4625 2.49374 24.35 1.63124 25.4188 1.88124ZM24.775 2.96249C24.55 3.18749 24.7188 3.62499 25.0375 3.62499C25.2313 3.62499 25.4375 3.41874 25.4375 3.22499C25.4375 2.90624 25 2.73749 24.775 2.96249Z" fill="#232A39"/>
<path d="M21.9188 1.88124C22.2626 1.96249 22.7126 2.36249 22.8438 2.71874C23.0813 3.33749 22.8563 4.04999 22.3188 4.41249C21.9876 4.63124 21.4251 4.68124 21.0313 4.53749C20.6438 4.38749 20.2813 3.95624 20.1938 3.54999C19.9626 2.49374 20.8501 1.63124 21.9188 1.88124ZM21.2751 2.96249C21.1251 3.10624 21.1188 3.28749 21.2563 3.45624C21.4126 3.65624 21.6376 3.67499 21.8126 3.49999C21.9876 3.32499 21.9688 3.09999 21.7688 2.94374C21.6001 2.80624 21.4188 2.81249 21.2751 2.96249Z" fill="#232A39"/>
<path d="M28.125 7.98125C28.175 8 28.6063 8.4 29.075 8.8625C30.2188 9.99375 30.2188 9.875 29.075 11.0125C28.2938 11.7937 28.1938 11.875 27.9938 11.875C27.7063 11.875 27.5 11.6625 27.5 11.375C27.5 11.2 27.5875 11.0813 28.1063 10.5562L28.7063 9.9375L28.1063 9.31875C27.575 8.775 27.5 8.66875 27.5 8.48125C27.5 8.13125 27.825 7.86875 28.125 7.98125Z" fill="#232A39"/>
<path d="M25.7812 7.99374C25.8562 8.02499 25.9438 8.08749 25.9812 8.13124C26.0938 8.26874 27.25 11.25 27.25 11.4062C27.25 11.4812 27.1937 11.6187 27.1187 11.7125C26.9625 11.9062 26.6438 11.9312 26.4437 11.7625C26.2875 11.6312 25.125 8.70624 25.125 8.44374C25.125 8.11249 25.475 7.86874 25.7812 7.99374Z" fill="#232A39"/>
<path d="M24.6563 7.99375C24.8875 8.0875 24.9625 8.25 24.9438 8.5875C24.9438 8.65 24.6625 8.98125 24.3313 9.325L23.725 9.9375L24.325 10.55C24.8875 11.1187 24.9625 11.2312 24.9438 11.5125C24.9313 11.7062 24.7063 11.875 24.4625 11.875C24.2563 11.875 24.1625 11.8 23.4375 11.0875C22.625 10.2937 22.4563 10.0562 22.525 9.8C22.575 9.6 24.1813 8.0125 24.375 7.975C24.4625 7.95625 24.5875 7.96875 24.6563 7.99375Z" fill="#232A39"/>
<path d="M21.4125 9.4C21.7187 9.5375 21.7812 9.8625 21.5562 10.15L21.4312 10.3125H20.4062C19.5062 10.3125 19.375 10.3 19.2437 10.1938C19.05 10.0375 19.0437 9.675 19.2375 9.48125C19.3687 9.35625 19.4437 9.34375 20.3 9.33125C20.975 9.31875 21.2687 9.3375 21.4125 9.4Z" fill="#232A39"/>
<path d="M17.9812 9.375C18.275 9.49375 18.3437 9.95 18.1062 10.175L17.9625 10.3125H12.825C7.76873 10.3125 7.68748 10.3125 7.56248 10.1875C7.37498 10 7.37498 9.66875 7.56873 9.46875C7.68748 9.34375 7.78123 9.34375 12.7687 9.33125C15.6187 9.325 17.9062 9.34375 17.9812 9.375Z" fill="#232A39"/>
<path d="M21.4063 11.4438C21.7125 11.6188 21.775 11.9313 21.5563 12.2125L21.4313 12.375H19.5313C17.775 12.375 17.6313 12.3688 17.4938 12.2563C17.3 12.1 17.2938 11.7375 17.4875 11.5438C17.625 11.4063 17.6563 11.4063 19.4563 11.3938C20.7125 11.3813 21.3188 11.4 21.4063 11.4438Z" fill="#232A39"/>
<path d="M16.4812 11.4375C16.775 11.5562 16.8437 12.0125 16.6062 12.2375C16.4687 12.3625 16.4 12.375 15.6 12.375C15.1312 12.375 14.6875 12.35 14.625 12.3125C14.325 12.15 14.3562 11.625 14.6875 11.4562C14.8687 11.3625 16.2625 11.35 16.4812 11.4375Z" fill="#232A39"/>
<path d="M13.6062 11.4375C13.9 11.5562 13.9687 12.0125 13.7312 12.2375C13.5875 12.375 13.5562 12.375 11.4125 12.375C10.1187 12.375 9.19373 12.35 9.12498 12.3125C8.82498 12.15 8.85623 11.625 9.18748 11.4563C9.37498 11.3625 13.375 11.3438 13.6062 11.4375Z" fill="#232A39"/>
<path d="M29.4062 13.7C29.725 13.8875 29.7812 14.225 29.5312 14.4688L29.3812 14.625H27.6062C25.9125 14.625 25.8312 14.6187 25.7 14.5C25.5125 14.325 25.5125 13.9375 25.6937 13.775C25.8125 13.6625 25.9562 13.6562 27.5562 13.6438C28.7875 13.6312 29.3187 13.6438 29.4062 13.7Z" fill="#232A39"/>
<path d="M24.5312 13.7C24.85 13.8812 24.9062 14.225 24.6562 14.4688L24.5062 14.625H21.5687C19.9562 14.625 18.5875 14.6062 18.5312 14.5875C18.4812 14.5625 18.3875 14.4625 18.3375 14.3625C18.2 14.1 18.3125 13.7812 18.575 13.6937C18.85 13.5938 24.3625 13.6 24.5312 13.7Z" fill="#232A39"/>
<path d="M13.4876 15.3313C13.7376 15.6 13.6438 16 13.3063 16.1188C13.0501 16.2063 10.9563 16.2125 10.7063 16.125C10.3813 16.0063 10.2813 15.6313 10.5063 15.35L10.6313 15.1875H11.9938C13.3313 15.1875 13.3563 15.1875 13.4876 15.3313Z" fill="#232A39"/>
<path d="M9.58126 15.2625C9.86876 15.4813 9.82501 15.9438 9.50001 16.1063C9.31251 16.2 8.65001 16.2125 8.39376 16.125C8.06876 16.0063 7.96876 15.6313 8.19376 15.35C8.31251 15.1938 8.35001 15.1875 8.90001 15.1875C9.26251 15.1875 9.51251 15.2188 9.58126 15.2625Z" fill="#232A39"/>
<path d="M7.31254 15.3125C7.50004 15.5 7.50004 15.8312 7.30629 16.0312C7.18754 16.15 7.10004 16.1562 5.36879 16.1562H3.55004L3.43129 16.0062C3.27504 15.8125 3.27504 15.475 3.43754 15.3125C3.55629 15.1937 3.64379 15.1875 5.37504 15.1875C7.10629 15.1875 7.19379 15.1937 7.31254 15.3125Z" fill="#232A39"/>
<path d="M29.5313 15.7813C29.7251 15.9688 29.7313 16.2375 29.5626 16.425C29.3813 16.6125 29.2376 16.6375 28.3876 16.6125C27.7563 16.6 27.6188 16.575 27.5063 16.475C27.3251 16.3125 27.3251 15.925 27.5126 15.75C27.6376 15.6375 27.7313 15.625 28.5126 15.625C29.3501 15.625 29.3876 15.6313 29.5313 15.7813Z" fill="#232A39"/>
<path d="M26.55 15.7688C26.7187 15.95 26.725 16.25 26.5687 16.4437L26.45 16.5938H24.1875H21.925L21.8062 16.4437C21.6437 16.2438 21.65 15.9312 21.8312 15.7625C21.975 15.625 22.0062 15.625 24.1937 15.625H26.4187L26.55 15.7688Z" fill="#232A39"/>
<path d="M20.7687 15.7C20.9375 15.8375 21.0125 16.1125 20.925 16.3C20.7937 16.5625 20.5937 16.6312 19.9937 16.6125C19.3437 16.5875 19.1875 16.4937 19.1875 16.1187C19.1875 15.7125 19.3437 15.625 20.0625 15.625C20.4437 15.625 20.7 15.6562 20.7687 15.7Z" fill="#232A39"/>
<path d="M18.4813 15.7187C18.7563 15.9125 18.7125 16.4125 18.4 16.5562C18.1938 16.65 16.6188 16.65 16.4125 16.5562C16.1875 16.45 16.0875 16.125 16.2125 15.8875C16.2625 15.7875 16.3563 15.6875 16.4063 15.6625C16.4625 15.6437 16.925 15.625 17.4313 15.625C18.1375 15.625 18.375 15.6437 18.4813 15.7187Z" fill="#232A39"/>
<path d="M29.4062 17.6375C29.725 17.8187 29.7812 18.1625 29.5312 18.4062L29.3812 18.5625H28C27.2312 18.5625 26.5687 18.5375 26.5062 18.5C26.4437 18.4688 26.3562 18.3563 26.3125 18.25C26.2125 18.0125 26.3125 17.7375 26.5375 17.6312C26.75 17.5375 29.2375 17.5375 29.4062 17.6375Z" fill="#232A39"/>
<path d="M25.5437 17.625C25.8375 17.7438 25.9062 18.2 25.6687 18.425C25.525 18.5625 25.4875 18.5625 23.7437 18.5625C21.9625 18.5625 21.9562 18.5625 21.825 18.4188C21.6562 18.2375 21.65 17.9375 21.8062 17.7438L21.925 17.5938L23.6687 17.5813C24.625 17.575 25.4687 17.5938 25.5437 17.625Z" fill="#232A39"/>
<path d="M20.7937 17.625C21.0875 17.7437 21.1562 18.2 20.9187 18.425C20.775 18.5625 20.7437 18.5625 18.55 18.5625C17.325 18.5625 16.275 18.5437 16.2187 18.525C16.1687 18.5 16.075 18.4 16.025 18.3C15.9 18.0625 16 17.7375 16.225 17.6312C16.4125 17.55 20.5812 17.5375 20.7937 17.625Z" fill="#232A39"/>
<path d="M13.35 20.3375C13.6625 20.475 13.7313 20.8812 13.4813 21.1125C13.3438 21.2437 13.2875 21.25 11.9875 21.25H10.6313L10.5063 21.0875C10.2813 20.8063 10.3813 20.4312 10.7063 20.3125C10.9938 20.2188 13.1125 20.2375 13.35 20.3375Z" fill="#232A39"/>
<path d="M9.50005 20.3312C9.7313 20.45 9.82505 20.6875 9.7438 20.9312C9.65005 21.2062 9.52505 21.25 8.8813 21.25C8.35005 21.25 8.31255 21.2437 8.1938 21.0875C7.96255 20.7937 8.0563 20.4437 8.40005 20.3125C8.63755 20.225 9.31255 20.2375 9.50005 20.3312Z" fill="#232A39"/>
<path d="M7.1562 20.3063C7.47495 20.4438 7.56245 20.875 7.31245 21.125C7.1937 21.2438 7.1062 21.25 5.37495 21.25C3.6437 21.25 3.5562 21.2438 3.43745 21.125C3.27495 20.9625 3.27495 20.625 3.4312 20.4313L3.54995 20.2813L5.2937 20.2688C6.24995 20.2625 7.08745 20.2813 7.1562 20.3063Z" fill="#232A39"/>
<path d="M13.4688 25.5312C13.5687 25.625 13.625 25.7562 13.625 25.875C13.625 25.9938 13.5687 26.125 13.4688 26.2188C13.3187 26.375 13.3125 26.375 12.0375 26.375C11.3375 26.375 10.7125 26.3562 10.6562 26.3375C10.5 26.275 10.3625 25.95 10.4062 25.7437C10.4813 25.4 10.5875 25.375 12.0187 25.375C13.3125 25.375 13.3187 25.375 13.4688 25.5312Z" fill="#232A39"/>
<path d="M9.57501 25.4625C9.85626 25.675 9.82501 26.1688 9.52501 26.3062C9.43751 26.3438 9.14376 26.375 8.86876 26.375C8.41876 26.375 8.35626 26.3562 8.21876 26.2188C8.11876 26.125 8.06251 25.9938 8.06251 25.875C8.06251 25.7562 8.11876 25.625 8.21876 25.5312C8.35626 25.3875 8.41876 25.375 8.91876 25.375C9.26876 25.3812 9.50626 25.4062 9.57501 25.4625Z" fill="#232A39"/>
<path d="M7.27505 25.5062C7.5063 25.6875 7.5063 26.0625 7.27505 26.2437C7.11255 26.3687 7.0313 26.375 5.37505 26.375C3.7188 26.375 3.63755 26.3687 3.47505 26.2437C3.35005 26.1437 3.31255 26.0625 3.31255 25.875C3.31255 25.6875 3.35005 25.6062 3.47505 25.5062C3.63755 25.3812 3.7188 25.375 5.37505 25.375C7.0313 25.375 7.11255 25.3812 7.27505 25.5062Z" fill="#232A39"/>
</g>
<defs>
<clipPath id="clip0_477_61370">
<rect width="32" height="32" fill="white" transform="matrix(-1 0 0 1 32 0)"/>
</clipPath>
</defs>
</svg>
