<svg width="25" height="24" viewBox="0 0 25 24" fill="none" xmlns="http://www.w3.org/2000/svg">
<g clip-path="url(#clip0_140_6571)">
<path d="M11.7141 0.00645849C11.6625 0.0111499 11.4982 0.0275698 11.3504 0.0392982C7.94164 0.346584 4.74868 2.18561 2.72639 5.01217C1.60029 6.58379 0.880059 8.36652 0.607918 10.2548C0.51173 10.9139 0.5 11.1086 0.5 12.0023C0.5 12.8961 0.51173 13.0908 0.607918 13.7499C1.26012 18.256 4.46716 22.0419 8.81672 23.4447C9.5956 23.6956 10.4167 23.8669 11.3504 23.9701C11.7141 24.01 13.2859 24.01 13.6496 23.9701C15.2613 23.7918 16.6267 23.3931 17.9733 22.7058C18.1798 22.6002 18.2196 22.5721 18.1915 22.5486C18.1727 22.5345 17.293 21.3546 16.2372 19.9285L14.3182 17.3365L11.9135 13.778C10.5903 11.8217 9.50176 10.222 9.49238 10.222C9.48299 10.2196 9.47361 11.8006 9.46891 13.7311C9.46188 17.1113 9.45953 17.2473 9.4173 17.3271C9.35631 17.442 9.30938 17.4889 9.21085 17.5405C9.13578 17.5781 9.07009 17.5851 8.71584 17.5851H8.30997L8.20205 17.5171C8.13167 17.4725 8.08006 17.4139 8.04487 17.3458L7.9956 17.2403L8.00029 12.5372L8.00733 7.8317L8.08006 7.74022C8.1176 7.69096 8.19736 7.62763 8.25367 7.59713C8.34985 7.55022 8.38739 7.54553 8.79325 7.54553C9.27185 7.54553 9.35161 7.56429 9.47595 7.70034C9.51114 7.73787 10.8132 9.69888 12.371 12.061C13.9287 14.4231 16.0589 17.6484 17.1053 19.2318L19.0056 22.11L19.1018 22.0466C19.9534 21.493 20.8543 20.7049 21.5674 19.8839C23.0853 18.141 24.0636 16.0158 24.3921 13.7499C24.4883 13.0908 24.5 12.8961 24.5 12.0023C24.5 11.1086 24.4883 10.9139 24.3921 10.2548C23.7399 5.74872 20.5328 1.96277 16.1833 0.560043C15.4161 0.311399 14.5997 0.140163 13.6848 0.0369525C13.4595 0.0134956 11.9088 -0.0123071 11.7141 0.00645849ZM16.6267 7.26404C16.7393 7.32034 16.8308 7.42824 16.8636 7.54084C16.8824 7.60182 16.8871 8.90603 16.8824 11.8452L16.8754 16.0627L16.1317 14.9227L15.3856 13.7827V10.7169C15.3856 8.73479 15.395 7.62059 15.4091 7.56664C15.4466 7.43528 15.5287 7.33207 15.6413 7.27108C15.7375 7.22182 15.7727 7.21713 16.1411 7.21713C16.4883 7.21713 16.5493 7.22182 16.6267 7.26404Z" fill="black"/>
</g>
<defs>
<clipPath id="clip0_140_6571">
<rect width="24" height="24" fill="white" transform="translate(0.5)"/>
</clipPath>
</defs>
</svg>
