<svg width="43" height="43" fill="none" xmlns="http://www.w3.org/2000/svg"><g clip-path="url(#a)"><path d="M9.593.9h1.864v1.848h1.717V.901h1.864v5.591h-1.864V4.628h-1.701v1.864h-1.88m7.909-3.727h-1.645V.9h5.162v1.864h-1.653v3.727h-1.864M21.837.901h1.953l1.2 1.969L26.189.9h1.953v5.592h-1.864V3.721l-1.305 2.01-1.304-2.01v2.771h-1.832M29.066.901h1.863v3.744h2.642v1.847h-4.505" fill="#000"/><path d="M9.528 39.069 6.854 9.053h29.4l-2.675 30-12.05 3.338" fill="#E44D26"/><path d="M21.554 39.838V11.517H33.57l-2.293 25.607" fill="#F16529"/><path d="M12.316 15.188h9.238v3.678H16.35l.34 3.769h4.863v3.67H13.32m.162 1.848h3.695l.26 2.942 4.116 1.102v3.84L14 33.932" fill="#EBEBEB"/><path d="M30.76 15.188h-9.223v3.678h8.882m-.332 3.769h-8.55v3.679h4.538l-.43 4.78-4.108 1.103v3.825l7.537-2.091" fill="#fff"/></g><defs><clipPath id="a"><path fill="#fff" transform="translate(.809 .9)" d="M0 0h41.49v41.49H0z"/></clipPath></defs></svg>