<svg width="42" height="44" fill="none" xmlns="http://www.w3.org/2000/svg"><path d="M20.857 25.526a3.527 3.527 0 1 0 0-7.053 3.527 3.527 0 0 0 0 7.053z" fill="#18A6CD"/><path fill-rule="evenodd" clip-rule="evenodd" d="M4.276 20.144c-.8.722-1.063 1.352-1.063 1.856s.263 1.134 1.063 1.855c.799.722 2.027 1.43 3.655 2.052 3.245 1.24 7.815 2.032 12.926 2.032s9.681-.793 12.927-2.032c1.627-.622 2.855-1.33 3.655-2.052.8-.721 1.062-1.35 1.062-1.855 0-.504-.263-1.134-1.062-1.856-.8-.721-2.028-1.43-3.655-2.05-3.246-1.24-7.816-2.033-12.927-2.033-5.11 0-9.68.793-12.926 2.032-1.628.621-2.856 1.33-3.655 2.051zm2.747-4.455c3.603-1.376 8.495-2.2 13.834-2.2 5.34 0 10.231.824 13.834 2.2 1.797.686 3.34 1.535 4.456 2.542 1.115 1.007 1.911 2.278 1.911 3.769 0 1.49-.796 2.762-1.911 3.769-1.116 1.007-2.658 1.856-4.456 2.542-3.603 1.376-8.494 2.2-13.834 2.2s-10.23-.824-13.834-2.2c-1.797-.686-3.34-1.535-4.455-2.542C1.451 24.762.655 23.491.655 22s.796-2.762 1.911-3.77c1.116-1.006 2.659-1.855 4.456-2.54z" fill="#18A6CD"/><path fill-rule="evenodd" clip-rule="evenodd" d="M14.184 6.715c-1.024-.331-1.704-.246-2.146.01-.442.255-.856.8-1.081 1.853-.225 1.052-.225 2.47.05 4.189.55 3.428 2.147 7.78 4.702 12.205s5.526 7.985 8.22 10.175c1.35 1.098 2.578 1.807 3.602 2.138 1.023.331 1.704.246 2.146-.01.442-.255.856-.8 1.08-1.853.226-1.052.225-2.47-.05-4.188-.55-3.429-2.147-7.781-4.702-12.206-2.554-4.425-5.525-7.985-8.22-10.175-1.35-1.098-2.578-1.807-3.601-2.138zm5.213.147c2.995 2.434 6.155 6.26 8.826 10.885 2.67 4.626 4.403 9.276 5.014 13.086.304 1.9.34 3.662.026 5.132-.314 1.47-1.017 2.792-2.302 3.534-1.286.743-2.782.69-4.213.228-1.43-.463-2.937-1.375-4.431-2.59-2.994-2.433-6.155-6.259-8.826-10.884-2.67-4.626-4.403-9.276-5.013-13.086-.305-1.9-.342-3.662-.027-5.132.315-1.47 1.017-2.792 2.303-3.534 1.286-.743 2.781-.69 4.212-.228 1.431.463 2.938 1.376 4.431 2.59z" fill="#18A6CD"/><path fill-rule="evenodd" clip-rule="evenodd" d="M30.758 8.578c-.225-1.052-.64-1.598-1.081-1.854-.443-.255-1.123-.34-2.146-.009-1.024.331-2.251 1.04-3.602 2.138-2.695 2.19-5.665 5.75-8.22 10.175-2.555 4.425-4.152 8.777-4.701 12.206-.276 1.718-.276 3.136-.051 4.188.225 1.052.639 1.598 1.08 1.854.443.255 1.123.34 2.147.009 1.024-.331 2.25-1.04 3.601-2.138 2.695-2.19 5.666-5.75 8.22-10.175 2.555-4.425 4.152-8.777 4.702-12.206.275-1.718.276-3.136.05-4.188zm2.479 4.589c-.61 3.81-2.343 8.46-5.014 13.086-2.67 4.625-5.831 8.45-8.826 10.885-1.493 1.214-3 2.126-4.43 2.589-1.432.463-2.927.515-4.213-.228-1.286-.742-1.988-2.063-2.303-3.534-.315-1.47-.278-3.232.027-5.132.61-3.81 2.343-8.46 5.013-13.086 2.67-4.625 5.832-8.45 8.826-10.885 1.494-1.213 3-2.126 4.431-2.589 1.431-.463 2.927-.515 4.212.228 1.286.742 1.989 2.063 2.303 3.534.315 1.47.278 3.232-.026 5.132z" fill="#18A6CD"/></svg>