<svg width="39" height="40" fill="none" xmlns="http://www.w3.org/2000/svg"><path d="M38.825 9.126a.624.624 0 0 1 .022.163v8.534a.622.622 0 0 1-.313.54l-7.162 4.123v8.174a.624.624 0 0 1-.311.54L16.11 39.805c-.035.02-.072.032-.11.045-.013.005-.027.013-.041.017a.627.627 0 0 1-.32 0c-.016-.004-.032-.014-.048-.02-.034-.012-.07-.023-.103-.042L.54 31.2a.622.622 0 0 1-.312-.54V5.06c0-.056.007-.11.021-.164.005-.018.016-.034.022-.052.012-.033.023-.066.04-.096.011-.02.029-.037.043-.056.017-.024.034-.05.055-.072.018-.018.041-.03.061-.047.023-.018.043-.038.069-.053L8.014.215a.624.624 0 0 1 .622 0L16.11 4.52h.002c.025.015.046.035.068.053.02.015.043.03.061.046.022.023.037.049.056.073.013.02.031.035.042.056.018.03.028.063.04.096.007.018.017.034.022.053a.633.633 0 0 1 .022.163v15.99l6.228-3.587V9.288c0-.054.008-.11.022-.162.006-.018.016-.035.022-.053.012-.032.023-.066.04-.096.012-.02.03-.037.042-.055.019-.025.034-.05.056-.073.018-.017.04-.03.061-.046.023-.019.044-.04.068-.054h.001l7.475-4.303a.623.623 0 0 1 .623 0l7.474 4.303c.026.016.047.035.07.053.02.016.042.03.06.047.022.022.037.048.056.073.014.018.03.035.042.055.018.03.028.064.04.096.007.018.017.035.022.053zM37.6 17.462v-7.096l-2.616 1.506-3.613 2.08v7.097l6.23-3.587H37.6zM30.126 30.3v-7.1l-3.554 2.03-10.15 5.792v7.168l13.704-7.89zM1.474 6.136v24.163l13.702 7.89v-7.167l-7.158-4.051-.003-.002-.003-.002c-.024-.014-.044-.034-.067-.05-.02-.016-.042-.029-.059-.046l-.001-.002c-.02-.02-.035-.044-.052-.066-.015-.02-.034-.038-.046-.06l-.001-.003c-.014-.023-.023-.05-.033-.077-.01-.024-.023-.046-.03-.07v-.001c-.007-.03-.009-.06-.012-.091-.003-.024-.01-.047-.01-.07V9.722L4.09 7.641 1.474 6.137v-.001zm6.852-4.662L2.098 5.059l6.226 3.584 6.227-3.585-6.227-3.584h.002zm3.238 22.372 3.613-2.08V6.136l-2.616 1.506-3.613 2.08v15.63l2.616-1.506zM30.75 5.704 24.523 9.29l6.226 3.585 6.226-3.586-6.226-3.584zm-.623 8.248-3.613-2.08-2.616-1.506v7.096l3.613 2.08 2.616 1.507v-7.097zM15.798 29.944l9.134-5.214 4.565-2.606-6.222-3.582-7.164 4.124-6.53 3.76 6.217 3.518z" fill="#FF0F00"/></svg>