<svg width="75" height="68" fill="none" xmlns="http://www.w3.org/2000/svg"><path d="m18.579-9.109 1.213 5.55 2.654 5.024L17.033-.26l-5.678-.213 4.2-3.826 3.024-4.81zm12.806 2.238 1.213 5.55 2.654 5.023-5.413-1.724-5.677-.213 4.2-3.826 3.023-4.81zM44.19-4.634l1.214 5.55 2.654 5.024-5.413-1.725-5.678-.213 4.2-3.826 3.024-4.81zm12.807 2.238 1.213 5.55 2.654 5.024-5.413-1.725-5.678-.213 4.2-3.826 3.024-4.81zM69.803-.159l1.213 5.55 2.654 5.024-5.413-1.725-5.678-.213 4.2-3.826 3.024-4.81zM16.341 3.697l1.213 5.55 2.654 5.023-5.413-1.724-5.677-.213 4.2-3.826 3.023-4.81zm12.806 2.238 1.213 5.55 2.654 5.023-5.413-1.725-5.677-.213 4.2-3.825 3.023-4.81zm12.806 2.237 1.213 5.55 2.654 5.023-5.413-1.724-5.677-.213 4.2-3.826 3.023-4.81zM54.76 10.41l1.212 5.55 2.654 5.023-5.413-1.724-5.677-.214 4.2-3.825 3.023-4.81zm12.805 2.237 1.213 5.55 2.654 5.024-5.413-1.725-5.677-.213 4.2-3.826 3.023-4.81zm12.806 2.238 1.213 5.55 2.654 5.023-5.413-1.724-5.677-.214 4.2-3.825 3.023-4.81zm-66.267 1.618 1.213 5.55 2.654 5.023-5.413-1.724-5.678-.213 4.2-3.826 3.024-4.81zM26.91 18.74l1.213 5.551 2.654 5.023-5.413-1.724-5.678-.214 4.2-3.825 3.024-4.81zm12.806 2.238 1.213 5.55 2.654 5.024-5.413-1.725-5.678-.213 4.2-3.826 3.024-4.81zm12.806 2.238 1.213 5.55 2.654 5.023-5.414-1.724-5.677-.213 4.2-3.826 3.024-4.81zm12.806 2.237 1.213 5.55 2.654 5.024-5.413-1.725-5.678-.213 4.2-3.826 3.024-4.81zm12.806 2.238 1.213 5.55L82 38.264l-5.413-1.724-5.678-.213 4.2-3.826 3.024-4.81zM11.866 29.31l1.213 5.55 2.654 5.023-5.413-1.725-5.677-.213 4.2-3.826 3.023-4.81zm12.806 2.237 1.213 5.55 2.654 5.023-5.413-1.724-5.677-.213 4.2-3.826 3.023-4.81zm12.806 2.237 1.213 5.55 2.654 5.024-5.413-1.725-5.677-.213 4.2-3.826 3.023-4.81zm12.806 2.238 1.213 5.55 2.654 5.023-5.413-1.724-5.677-.213 4.2-3.826 3.023-4.81zM63.09 38.26l1.213 5.55 2.654 5.023-5.413-1.725-5.677-.213 4.2-3.826 3.023-4.81zm12.806 2.237 1.213 5.55 2.654 5.024-5.413-1.725-5.677-.213 4.2-3.826 3.023-4.81zM9.629 42.115l1.213 5.55 2.654 5.023-5.414-1.724-5.677-.213 4.2-3.826 3.024-4.81zm12.806 2.238 1.213 5.55 2.654 5.023-5.413-1.725-5.678-.213 4.2-3.825 3.024-4.81zM35.24 46.59l1.213 5.55 2.654 5.023-5.413-1.724-5.677-.213 4.2-3.826 3.023-4.81zm12.807 2.238 1.213 5.55 2.654 5.023-5.414-1.725-5.677-.213 4.2-3.825 3.023-4.81zm12.806 2.237 1.212 5.55 2.655 5.023-5.413-1.724-5.678-.213 4.2-3.826 3.024-4.81zm12.806 2.238 1.212 5.55 2.654 5.023-5.413-1.724-5.677-.214 4.2-3.825 3.023-4.81z" fill="#fff" fill-opacity=".1"/></svg>