<svg width="91" height="63" fill="none" xmlns="http://www.w3.org/2000/svg"><g opacity=".4"><path d="M7.947 31.944c-2.331-1.28-2.25-4.656.139-5.824l5.905-2.885a3.281 3.281 0 0 1 2.64-.106c2.657 1.044 2.806 4.749.24 6.002l-5.904 2.885a3.281 3.281 0 0 1-3.02-.072z" fill="#FFDAE0"/><path d="M16.75 26.774c-2.33-1.28-2.25-4.656.14-5.824l5.904-2.885a3.281 3.281 0 0 1 2.64-.106c2.657 1.044 2.806 4.749.24 6.002l-5.904 2.885a3.281 3.281 0 0 1-3.02-.072z" fill="#FFC8D1"/><path d="M25.553 21.604c-2.33-1.28-2.25-4.657.14-5.824l5.904-2.885a3.281 3.281 0 0 1 2.64-.106c2.657 1.044 2.806 4.748.24 6.001l-5.904 2.886a3.281 3.281 0 0 1-3.02-.072z" fill="#FFC8D1"/><path d="M34.356 16.433c-2.331-1.28-2.25-4.656.14-5.824L40.4 7.724a3.28 3.28 0 0 1 2.64-.106c2.657 1.044 2.806 4.749.24 6.002l-5.904 2.885a3.28 3.28 0 0 1-3.02-.072z" fill="#FFA3B2"/><path d="M43.16 11.262c-2.332-1.28-2.251-4.656.138-5.824l5.905-2.885a3.28 3.28 0 0 1 2.64-.105c2.657 1.044 2.806 4.748.24 6.001l-5.904 2.885a3.28 3.28 0 0 1-3.02-.072z" fill="#FF90A3"/><path d="M51.962 6.092c-2.33-1.28-2.25-4.656.14-5.823l5.904-2.886a3.28 3.28 0 0 1 2.64-.105c2.657 1.044 2.806 4.748.24 6.001l-5.904 2.885a3.28 3.28 0 0 1-3.02-.072z" fill="#FF7E93"/><path d="M60.765.922c-2.33-1.28-2.25-4.656.14-5.824l5.904-2.885a3.281 3.281 0 0 1 2.64-.106c2.657 1.044 2.806 4.749.24 6.002L63.786.994a3.281 3.281 0 0 1-3.02-.072z" fill="#FF6B84"/></g><g opacity=".4"><path d="M12.416 41.09c-2.332-1.28-2.251-4.657.139-5.824l5.905-2.885a3.281 3.281 0 0 1 2.64-.106c2.657 1.044 2.805 4.749.24 6.002l-5.905 2.885a3.281 3.281 0 0 1-3.02-.072z" fill="#FFDAE0"/><path d="M21.219 35.92c-2.331-1.28-2.25-4.657.139-5.824l5.905-2.885a3.281 3.281 0 0 1 2.64-.106c2.657 1.044 2.805 4.748.24 6.001l-5.905 2.885a3.281 3.281 0 0 1-3.02-.072z" fill="#FFC8D1"/><path d="M30.022 30.749c-2.331-1.28-2.25-4.656.139-5.824l5.905-2.885a3.281 3.281 0 0 1 2.64-.106c2.657 1.044 2.805 4.749.24 6.002l-5.905 2.885a3.28 3.28 0 0 1-3.02-.072z" fill="#FFC8D1"/><path d="M38.825 25.579c-2.332-1.28-2.25-4.657.139-5.824l5.905-2.885a3.28 3.28 0 0 1 2.64-.106c2.657 1.044 2.805 4.748.24 6.002l-5.905 2.885a3.281 3.281 0 0 1-3.02-.072z" fill="#FFA3B2"/><path d="M47.628 20.408c-2.331-1.28-2.25-4.656.139-5.824l5.905-2.885a3.28 3.28 0 0 1 2.64-.105c2.657 1.044 2.805 4.748.24 6.001l-5.905 2.885a3.28 3.28 0 0 1-3.02-.072z" fill="#FF90A3"/><path d="M56.43 15.238c-2.33-1.28-2.25-4.656.14-5.823l5.905-2.886a3.28 3.28 0 0 1 2.64-.105c2.657 1.044 2.805 4.748.24 6.001L59.45 15.31a3.28 3.28 0 0 1-3.02-.072z" fill="#FF7E93"/><path d="M65.234 10.068c-2.331-1.28-2.25-4.656.139-5.824l5.905-2.885a3.281 3.281 0 0 1 2.64-.106c2.657 1.044 2.805 4.749.24 6.002l-5.905 2.885a3.28 3.28 0 0 1-3.02-.072z" fill="#FF6B84"/><path d="M74.037 4.897c-2.331-1.28-2.25-4.656.139-5.823l5.905-2.885a3.28 3.28 0 0 1 2.64-.106c2.657 1.044 2.805 4.748.24 6.001L77.056 4.97a3.281 3.281 0 0 1-3.02-.072z" fill="#FF5974"/></g><g opacity=".4"><path d="M16.884 50.235c-2.33-1.28-2.25-4.656.14-5.824l5.904-2.885a3.28 3.28 0 0 1 2.64-.106c2.657 1.044 2.806 4.749.241 6.002l-5.905 2.885a3.28 3.28 0 0 1-3.02-.072z" fill="#FFDAE0"/><path d="M25.688 45.065c-2.331-1.28-2.251-4.656.139-5.824l5.905-2.885a3.281 3.281 0 0 1 2.64-.106c2.657 1.044 2.805 4.749.24 6.002l-5.905 2.885a3.28 3.28 0 0 1-3.02-.072z" fill="#FFC8D1"/><path d="M34.49 39.895c-2.33-1.28-2.25-4.657.14-5.824l5.905-2.885a3.28 3.28 0 0 1 2.64-.106c2.657 1.044 2.805 4.748.24 6.001l-5.905 2.886a3.28 3.28 0 0 1-3.02-.072z" fill="#FFC8D1"/><path d="M43.294 34.724c-2.332-1.28-2.251-4.656.139-5.824l5.904-2.885a3.281 3.281 0 0 1 2.64-.105c2.658 1.043 2.806 4.748.241 6.001l-5.905 2.885a3.281 3.281 0 0 1-3.02-.072z" fill="#FFA3B2"/><path d="M52.097 29.554c-2.331-1.28-2.25-4.657.139-5.824l5.905-2.885a3.281 3.281 0 0 1 2.64-.106c2.657 1.044 2.805 4.748.24 6.002l-5.905 2.885a3.281 3.281 0 0 1-3.02-.072z" fill="#FF90A3"/><path d="M60.9 24.383c-2.331-1.28-2.251-4.656.139-5.823l5.905-2.885a3.281 3.281 0 0 1 2.64-.106c2.657 1.044 2.805 4.748.24 6.001l-5.905 2.885a3.281 3.281 0 0 1-3.02-.072z" fill="#FF7E93"/><path d="M69.703 19.213c-2.332-1.28-2.251-4.656.138-5.824l5.906-2.885a3.28 3.28 0 0 1 2.64-.106c2.657 1.044 2.805 4.749.24 6.002l-5.905 2.885a3.28 3.28 0 0 1-3.02-.072z" fill="#FF6B84"/><path d="M78.506 14.042c-2.331-1.28-2.25-4.656.139-5.823l5.905-2.885a3.28 3.28 0 0 1 2.64-.106c2.657 1.044 2.805 4.748.24 6.001l-5.905 2.886a3.28 3.28 0 0 1-3.02-.073z" fill="#FF5974"/></g><g opacity=".4"><path d="M21.353 59.382c-2.332-1.28-2.251-4.657.139-5.824l5.905-2.885a3.281 3.281 0 0 1 2.64-.106c2.657 1.044 2.805 4.749.24 6.002l-5.905 2.885a3.281 3.281 0 0 1-3.02-.072z" fill="#FFDAE0"/><path d="M30.156 54.212c-2.331-1.28-2.25-4.656.139-5.824l5.905-2.885a3.281 3.281 0 0 1 2.64-.106c2.657 1.044 2.805 4.749.24 6.002l-5.905 2.885a3.281 3.281 0 0 1-3.02-.072z" fill="#FFC8D1"/><path d="M38.959 49.041c-2.331-1.28-2.25-4.656.139-5.823l5.905-2.885a3.281 3.281 0 0 1 2.64-.106c2.657 1.044 2.805 4.748.24 6.001l-5.905 2.886a3.281 3.281 0 0 1-3.02-.073z" fill="#FFC8D1"/><path d="M47.762 43.87c-2.331-1.28-2.25-4.656.139-5.823l5.905-2.885a3.28 3.28 0 0 1 2.64-.106c2.657 1.044 2.805 4.748.24 6.002l-5.905 2.885a3.28 3.28 0 0 1-3.02-.072z" fill="#FFA3B2"/><path d="M56.565 38.7c-2.331-1.28-2.25-4.656.139-5.824l5.905-2.885a3.28 3.28 0 0 1 2.64-.105c2.657 1.044 2.805 4.748.24 6.001l-5.905 2.885a3.28 3.28 0 0 1-3.02-.072z" fill="#FF90A3"/><path d="M65.368 33.53c-2.331-1.28-2.25-4.656.139-5.824l5.905-2.885a3.28 3.28 0 0 1 2.64-.105c2.657 1.044 2.805 4.748.24 6.001l-5.905 2.885a3.28 3.28 0 0 1-3.02-.072z" fill="#FF7E93"/><path d="M74.17 28.36c-2.33-1.28-2.25-4.656.14-5.824l5.905-2.885a3.28 3.28 0 0 1 2.64-.106c2.657 1.044 2.805 4.749.24 6.002l-5.905 2.885a3.28 3.28 0 0 1-3.02-.072z" fill="#FF6B84"/><path d="M82.974 23.19c-2.331-1.28-2.25-4.657.139-5.824l5.905-2.885a3.28 3.28 0 0 1 2.64-.106c2.657 1.044 2.805 4.748.24 6.001l-5.905 2.885a3.28 3.28 0 0 1-3.019-.072z" fill="#FF5974"/></g></svg>