<svg width="74" height="81" fill="none" xmlns="http://www.w3.org/2000/svg"><circle cx="23.765" cy="-2.502" r="5.5" transform="rotate(15.516 23.765 -2.502)" fill="#D9D9D9" fill-opacity=".1"/><circle cx="40.145" cy="2.046" r="5.5" transform="rotate(15.516 40.145 2.046)" fill="#D9D9D9" fill-opacity=".1"/><circle cx="56.525" cy="6.594" r="5.5" transform="rotate(15.516 56.525 6.594)" fill="#D9D9D9" fill-opacity=".1"/><circle cx="72.906" cy="11.141" r="5.5" transform="rotate(15.516 72.906 11.141)" fill="#D9D9D9" fill-opacity=".1"/><circle cx="19.752" cy="11.951" r="5.5" transform="rotate(15.516 19.752 11.951)" fill="#D9D9D9" fill-opacity=".1"/><circle cx="36.132" cy="16.499" r="5.5" transform="rotate(15.516 36.132 16.499)" fill="#D9D9D9" fill-opacity=".1"/><circle cx="52.513" cy="21.047" r="5.5" transform="rotate(15.516 52.513 21.047)" fill="#D9D9D9" fill-opacity=".1"/><circle cx="68.893" cy="25.594" r="5.5" transform="rotate(15.516 68.893 25.594)" fill="#D9D9D9" fill-opacity=".1"/><circle cx="15.739" cy="26.405" r="5.5" transform="rotate(15.516 15.74 26.405)" fill="#D9D9D9" fill-opacity=".1"/><circle cx="32.12" cy="30.953" r="5.5" transform="rotate(15.516 32.12 30.953)" fill="#D9D9D9" fill-opacity=".1"/><circle cx="48.5" cy="35.5" r="5.5" transform="rotate(15.516 48.5 35.5)" fill="#D9D9D9" fill-opacity=".1"/><circle cx="64.88" cy="40.048" r="5.5" transform="rotate(15.516 64.88 40.048)" fill="#D9D9D9" fill-opacity=".1"/><circle cx="11.726" cy="40.858" r="5.5" transform="rotate(15.516 11.726 40.858)" fill="#D9D9D9" fill-opacity=".1"/><circle cx="28.107" cy="45.406" r="5.5" transform="rotate(15.516 28.107 45.406)" fill="#D9D9D9" fill-opacity=".1"/><circle cx="44.487" cy="49.953" r="5.5" transform="rotate(15.516 44.487 49.953)" fill="#D9D9D9" fill-opacity=".1"/><circle cx="60.868" cy="54.501" r="5.5" transform="rotate(15.516 60.868 54.5)" fill="#D9D9D9" fill-opacity=".1"/><circle cx="77.248" cy="59.049" r="5.5" transform="rotate(15.516 77.248 59.049)" fill="#D9D9D9" fill-opacity=".1"/><circle cx="7.714" cy="55.311" r="5.5" transform="rotate(15.516 7.714 55.31)" fill="#D9D9D9" fill-opacity=".1"/><circle cx="24.094" cy="59.859" r="5.5" transform="rotate(15.516 24.094 59.859)" fill="#D9D9D9" fill-opacity=".1"/><circle cx="40.474" cy="64.407" r="5.5" transform="rotate(15.516 40.474 64.407)" fill="#D9D9D9" fill-opacity=".1"/><circle cx="56.855" cy="68.954" r="5.5" transform="rotate(15.516 56.855 68.954)" fill="#D9D9D9" fill-opacity=".1"/><circle cx="73.235" cy="73.502" r="5.5" transform="rotate(15.516 73.235 73.502)" fill="#D9D9D9" fill-opacity=".1"/></svg>