<svg width="102" height="107" fill="none" xmlns="http://www.w3.org/2000/svg"><path d="m27.8 85.103 4.1 4.154M13.6 71.06l7.6 7.615M26.4 72.049l28.7 28.284M11.8 57.61l5.9 5.736" stroke="#392C7D" stroke-width="1.153" stroke-miterlimit="10" stroke-linecap="round" stroke-linejoin="round"/><path d="m47 80.554 25.2 24.921M9 42.974l26.9 26.504" stroke="#FF4667" stroke-width="1.153" stroke-miterlimit="10" stroke-linecap="round" stroke-linejoin="round"/><path d="m30.1 51.973 44.4 43.91M11.7 33.776l9.4 9.296M66.8 76.4l10.6 10.582M1 11.426l54.5 53.898" stroke="#392C7D" stroke-width="1.153" stroke-miterlimit="10" stroke-linecap="round" stroke-linejoin="round"/><path d="M44.7 42.776 98 95.487M21.2 19.536l12.4 12.263" stroke="#FF4667" stroke-width="1.153" stroke-miterlimit="10" stroke-linecap="round" stroke-linejoin="round"/><path d="m55.1 41.193 34.4 34.02M20 6.481l25.4 25.12" stroke="#392C7D" stroke-width="1.153" stroke-miterlimit="10" stroke-linecap="round" stroke-linejoin="round"/><path d="m83.4 57.412 18 17.801M35.5 10.041l34.9 34.416" stroke="#FF4667" stroke-width="1.153" stroke-miterlimit="10" stroke-linecap="round" stroke-linejoin="round"/><path d="m66 28.337 24.3 24.031M38.4 1.042l18.1 17.9" stroke="#392C7D" stroke-width="1.153" stroke-miterlimit="10" stroke-linecap="round" stroke-linejoin="round"/><path d="m87.6 37.831 9.4 9.395M52.9 3.514 76.8 27.25" stroke="#FF4667" stroke-width="1.153" stroke-miterlimit="10" stroke-linecap="round" stroke-linejoin="round"/><path d="m82.7 21.217 5.8 5.736M72.5 11.13l4 3.956" stroke="#392C7D" stroke-width="1.153" stroke-miterlimit="10" stroke-linecap="round" stroke-linejoin="round"/></svg>