<svg width="29" height="29" fill="none" xmlns="http://www.w3.org/2000/svg"><path d="M25.771 20.366c-.468-.186-.655-.742-.468-1.159.187-.463.75-.648 1.17-.463.47.186.656.741.47 1.158 0 .047-.048.047-.048.093-.187.37-.702.556-1.124.37z" fill="#392C7D"/><path d="M22.915 25.228c-.375.324-.937.231-1.264-.139-.328-.37-.235-.926.14-1.25.375-.325.936-.232 1.264.138a.903.903 0 0 1 .094 1.02l-.234.23zM27.223 14.253c-.515.046-.937-.325-.983-.834-.047-.51.327-.926.842-.973a.899.899 0 0 1 .984.834c0 .185-.047.37-.14.51-.141.278-.375.416-.703.463zM16.78 28.1c-.468.092-.983-.232-1.077-.696-.093-.463.234-.972.703-1.065.468-.093.983.232 1.077.695.047.232 0 .463-.094.602-.14.232-.328.37-.609.463zM25.63 8.186c-.42.278-.982.139-1.264-.278-.28-.417-.14-.973.282-1.25.42-.279.983-.14 1.264.277a.834.834 0 0 1 0 .927c-.047.139-.14.231-.281.324z" fill="#FF4667"/><path d="M10.037 27.822a.906.906 0 0 1-.609-1.112.919.919 0 0 1 1.124-.602c.469.139.75.648.609 1.111 0 .093-.047.14-.094.186-.187.324-.608.51-1.03.416zM20.152 3.832c-.047 0-.047 0 0 0-.468-.277-.609-.833-.375-1.25.235-.417.796-.556 1.218-.324h.093c.422.231.563.787.328 1.204-.28.463-.843.648-1.264.37z" fill="#392C7D"/><path d="M5.448 24.44c-.328.371-.937.371-1.264.047a.875.875 0 0 1-.047-1.25c.328-.37.936-.37 1.264-.047.328.278.375.741.14 1.112 0 .046-.046.093-.093.139z" fill="#FF4667"/><path d="M14.439 2.212a.832.832 0 0 1-.843-.927c0-.51.422-.88.937-.833.515 0 .89.417.89.926a.741.741 0 0 1-.141.417 1.066 1.066 0 0 1-.843.417z" fill="#392C7D"/><path d="M1.702 19.393c-.469.139-.984-.093-1.124-.556-.14-.463.094-.972.562-1.111.468-.14.983.092 1.124.555.093.232.046.51-.094.742a.976.976 0 0 1-.468.37zM8.68 3.37c-.47.231-.984.046-1.218-.417-.235-.463 0-.973.421-1.204.468-.232.983-.047 1.218.417a.873.873 0 0 1-.047.833.727.727 0 0 1-.375.37zM.765 13.188c-.515-.093-.843-.556-.75-1.02.095-.509.563-.833 1.031-.74.515.092.843.555.75 1.018a.851.851 0 0 1-.094.325 1.01 1.01 0 0 1-.937.416z" fill="#FF4667"/><path d="M4.09 7.074c-.28.37-.843.463-1.264.186-.375-.278-.469-.834-.188-1.251.281-.417.843-.463 1.265-.185a.872.872 0 0 1 .234 1.158c0 .046 0 .046-.047.092z" fill="#392C7D"/><path d="M23.617 19.254a.71.71 0 0 1-.375-.973c.141-.37.61-.555.984-.37a.71.71 0 0 1 .375.973c0 .046-.047.046-.047.092a.786.786 0 0 1-.937.278zM21.276 23.237c-.328.278-.796.185-1.03-.093-.281-.324-.234-.787.093-1.019.328-.278.796-.185 1.03.093a.687.687 0 0 1 .047.834c0 .092-.047.138-.14.185zM24.835 14.252c-.422.046-.75-.278-.796-.648-.047-.417.28-.741.655-.788.422-.046.75.278.796.649 0 .139-.046.278-.093.417a.609.609 0 0 1-.562.37zM16.265 25.599a.753.753 0 0 1-.89-.556c-.093-.417.188-.787.562-.88a.753.753 0 0 1 .89.556c.047.185 0 .37-.094.51-.046.184-.234.323-.468.37z" fill="#FF4667"/><path d="M23.524 9.297c-.328.232-.797.093-1.03-.232-.235-.324-.094-.787.233-1.018.328-.232.797-.093 1.03.231.141.232.141.51 0 .741a.476.476 0 0 1-.233.278z" fill="#392C7D"/><path d="M10.74 25.367c-.375-.093-.61-.51-.516-.927.094-.37.515-.602.937-.509.375.093.609.51.515.926 0 .047-.047.093-.094.186-.14.277-.515.416-.843.324zM19.028 5.777c0-.046 0-.046 0 0-.375-.231-.515-.648-.328-1.018.188-.37.656-.463 1.03-.278.375.185.469.648.282 1.019a.744.744 0 0 1-.984.277zM6.993 22.634c-.28.278-.749.325-1.03 0a.721.721 0 0 1 0-1.018.74.74 0 0 1 1.03 0 .772.772 0 0 1 .14.88l-.14.139zM14.345 4.434c-.421 0-.702-.37-.702-.74 0-.418.374-.695.75-.695.42 0 .748.37.701.74a.663.663 0 0 1-.093.325c-.094.231-.375.37-.656.37z" fill="#FF4667"/><path d="M3.95 18.466c-.375.14-.797-.092-.937-.463-.14-.37.094-.787.468-.926.375-.139.796.092.937.463a.894.894 0 0 1-.047.602c-.094.139-.234.278-.422.324z" fill="#392C7D"/><path d="M9.616 5.36c-.375.186-.796 0-.984-.37-.187-.37 0-.787.328-.973.375-.185.796 0 .983.325a.735.735 0 0 1-.046.694c0 .186-.14.278-.281.324zM3.153 13.372c-.421-.046-.655-.417-.608-.833.046-.417.421-.649.843-.602.42.046.655.416.608.833a.352.352 0 0 1-.093.232c-.14.277-.422.463-.75.37zM5.916 8.417c-.234.324-.702.37-1.03.139-.328-.232-.375-.695-.14-1.019.234-.324.702-.37 1.03-.139a.774.774 0 0 1 .187.973c-.047 0-.047 0-.047.046zM21.79 18.328a.66.66 0 0 1-.327-.788c.14-.277.468-.463.796-.324a.66.66 0 0 1 .328.788s0 .046-.047.046c-.14.278-.468.417-.75.278zM19.87 21.57c-.233.185-.655.185-.842-.093a.59.59 0 0 1 .094-.834c.234-.185.655-.185.843.093.14.185.187.463.046.648 0 .093-.046.14-.14.186zM22.774 14.299c-.327.046-.608-.232-.655-.556-.047-.324.234-.602.562-.649.328-.046.608.232.655.556 0 .14 0 .232-.093.325-.094.185-.281.324-.469.324z" fill="#FF4667"/><path d="M15.844 23.468c-.328.047-.656-.139-.703-.463-.046-.324.14-.648.469-.695.328-.046.655.14.702.463.047.14 0 .278-.047.417a.682.682 0 0 1-.421.278z" fill="#392C7D"/><path d="M21.697 10.27a.614.614 0 0 1-.843-.186c-.187-.277-.093-.648.188-.833a.614.614 0 0 1 .843.185c.14.185.14.417 0 .602 0 .093-.094.185-.188.232zM11.348 23.283a.594.594 0 0 1-.421-.74.602.602 0 0 1 .75-.418.594.594 0 0 1 .42.741c0 .047-.046.093-.046.14a.605.605 0 0 1-.703.277z" fill="#FF4667"/><path d="M18.092 7.399c-.047 0-.047 0 0 0-.047 0-.047 0 0 0-.328-.186-.422-.556-.235-.834.14-.278.515-.37.797-.232.28.186.374.51.234.788-.188.324-.516.463-.796.278zM8.305 21.06a.598.598 0 0 1-.843 0 .583.583 0 0 1 0-.834.598.598 0 0 1 .843 0c.187.186.234.51.093.742l-.093.092z" fill="#392C7D"/><path d="M14.299 6.333c-.328 0-.61-.277-.562-.602 0-.324.28-.602.608-.556.328 0 .61.278.562.603 0 .092-.047.185-.093.278a.637.637 0 0 1-.515.277zM5.823 17.68c-.328.092-.656-.047-.75-.371-.093-.324.047-.649.375-.741.328-.093.656.046.75.37.046.186.046.325-.048.463-.046.14-.14.232-.327.278zM10.459 7.074c-.281.14-.656 0-.796-.277-.141-.278 0-.649.28-.788.282-.139.656 0 .797.278a.585.585 0 0 1 0 .556c-.094.092-.188.185-.281.231zM5.214 13.604a.622.622 0 0 1-.515-.694c.047-.325.374-.556.702-.51.328.046.562.37.515.695 0 .092-.047.139-.093.185-.094.232-.375.324-.61.324zM7.415 9.529c-.188.278-.562.324-.843.139-.281-.185-.328-.556-.14-.834.187-.278.561-.324.842-.139.234.185.328.51.14.788.048 0 .048.046 0 .046z" fill="#FF4667"/></svg>