<svg width="60" height="59" viewBox="0 0 60 59" fill="none" xmlns="http://www.w3.org/2000/svg">
<path d="M55.0341 42.3846C54.0341 41.9903 53.6341 40.8075 54.0341 39.9204C54.4341 38.9348 55.6341 38.5405 56.5341 38.9348C57.5341 39.329 57.9341 40.5118 57.5341 41.3989C57.5341 41.4975 57.4342 41.4975 57.4342 41.5961C57.0342 42.3846 55.9341 42.7788 55.0341 42.3846Z" fill="white"/>
<path d="M48.9341 52.7318C48.1341 53.4218 46.9341 53.2247 46.2341 52.4361C45.5341 51.6476 45.7341 50.4648 46.5341 49.7748C47.3341 49.0849 48.5341 49.282 49.2341 50.0705C49.7341 50.6619 49.8341 51.549 49.4341 52.239C49.2341 52.4361 49.1341 52.5347 48.9341 52.7318Z" fill="#FF4667"/>
<path d="M58.134 29.3763C57.034 29.4749 56.1341 28.6863 56.0341 27.6021C55.9341 26.5179 56.7341 25.6308 57.8341 25.5322C58.9341 25.4337 59.8341 26.2222 59.9341 27.3064C59.9341 27.7007 59.834 28.095 59.634 28.3907C59.334 28.982 58.834 29.2777 58.134 29.3763Z" fill="#FF4667"/>
<path d="M35.8341 58.8422C34.8341 59.0393 33.7341 58.3494 33.5341 57.3637C33.3341 56.3781 34.0341 55.2938 35.0341 55.0967C36.0341 54.8996 37.1341 55.5895 37.3341 56.5752C37.4341 57.068 37.3341 57.5609 37.1341 57.8566C36.8341 58.3494 36.4341 58.6451 35.8341 58.8422Z" fill="#FF4667"/>
<path d="M54.7341 16.4666C53.8341 17.058 52.6341 16.7623 52.0341 15.8752C51.4341 14.9881 51.7341 13.8053 52.6341 13.2139C53.5341 12.6225 54.7341 12.9182 55.3341 13.8053C55.7341 14.3967 55.7341 15.1852 55.3341 15.7766C55.2341 16.0723 55.0341 16.2695 54.7341 16.4666Z" fill="#FF4667"/>
<path d="M21.4341 58.2507C20.4341 57.955 19.834 56.8707 20.134 55.8851C20.434 54.8994 21.534 54.308 22.534 54.6037C23.534 54.8994 24.134 55.9836 23.834 56.9693C23.834 57.1664 23.734 57.265 23.634 57.3636C23.234 58.0535 22.3341 58.4478 21.4341 58.2507Z" fill="white"/>
<path d="M43.0341 7.20291C42.9341 7.20291 42.9341 7.20291 43.0341 7.20291C42.0341 6.61151 41.7341 5.42872 42.2341 4.54163C42.7341 3.65454 43.9341 3.35884 44.8341 3.85167C44.8341 3.85167 44.8341 3.85167 44.9341 3.85167C44.9341 3.85167 44.9341 3.85167 45.0341 3.85167C45.9341 4.3445 46.2341 5.52728 45.7341 6.41438C45.1341 7.40004 43.9341 7.7943 43.0341 7.20291Z" fill="white"/>
<path d="M11.634 51.0567C10.934 51.8452 9.63407 51.8452 8.93407 51.1553C8.13407 50.4653 8.13403 49.1839 8.83403 48.494C9.53403 47.7055 10.834 47.7055 11.534 48.3954C12.234 48.9868 12.334 49.9725 11.834 50.761C11.834 50.8596 11.734 50.9581 11.634 51.0567Z" fill="#FF4667"/>
<path d="M30.8341 3.75383C29.7341 3.75383 28.9341 2.86673 29.0341 1.78251C29.0341 0.698283 29.9341 -0.0902478 31.0341 0.00831813C32.1341 0.00831813 32.9341 0.895411 32.9341 1.97964C32.9341 2.27533 32.834 2.57104 32.634 2.86674C32.234 3.35957 31.6341 3.75383 30.8341 3.75383Z" fill="white"/>
<path d="M3.63401 40.3152C2.63401 40.6109 1.53405 40.1181 1.23405 39.1325C0.934047 38.1468 1.43406 37.0626 2.43406 36.7669C3.43406 36.4712 4.53402 36.964 4.83402 37.9497C5.03402 38.4425 4.93401 39.0339 4.63401 39.5267C4.43401 39.8224 4.13401 40.1181 3.63401 40.3152Z" fill="#FF4667"/>
<path d="M18.5341 6.21764C17.5341 6.71047 16.4341 6.31621 15.9341 5.33055C15.4341 4.34489 15.9341 3.26066 16.8341 2.76783C17.8341 2.275 18.9341 2.66927 19.4341 3.65493C19.7341 4.24633 19.6341 4.93628 19.3341 5.42911C19.1341 5.82337 18.9341 6.02051 18.5341 6.21764Z" fill="#FF4667"/>
<path d="M1.63403 27.1096C0.534029 26.9125 -0.165946 25.9268 0.034054 24.9412C0.234054 23.857 1.23407 23.167 2.23407 23.3641C3.33407 23.5613 4.03404 24.5469 3.83404 25.5326C3.83404 25.7297 3.73403 26.0254 3.63403 26.2225C3.23403 26.8139 2.43403 27.2082 1.63403 27.1096Z" fill="#FF4667"/>
<path d="M8.73405 14.1014C8.13405 14.89 6.93404 15.0871 6.03404 14.4957C5.23404 13.9043 5.03401 12.7215 5.63401 11.8344C6.23401 10.9473 7.43403 10.8487 8.33403 11.4401C9.13403 12.0315 9.33403 13.1158 8.83403 13.9043C8.83403 14.0029 8.83405 14.0029 8.73405 14.1014Z" fill="white"/>
<path d="M50.434 40.0194C49.634 39.7237 49.234 38.7381 49.634 37.9495C49.934 37.161 50.934 36.7668 51.734 37.161C52.534 37.4567 52.934 38.4424 52.534 39.2309C52.534 39.3295 52.434 39.3295 52.434 39.428C52.034 40.0194 51.234 40.3151 50.434 40.0194Z" fill="#FF4667"/>
<path d="M45.4341 48.4942C44.7341 49.0856 43.7341 48.8884 43.2341 48.297C42.6341 47.6071 42.7341 46.6214 43.4341 46.1286C44.1341 45.5372 45.134 45.7343 45.634 46.3257C46.034 46.8185 46.1341 47.5085 45.7341 48.0999C45.7341 48.297 45.6341 48.3956 45.4341 48.4942Z" fill="#FF4667"/>
<path d="M53.034 29.376C52.134 29.4746 51.434 28.7846 51.334 27.9961C51.234 27.109 51.934 26.419 52.734 26.3205C53.634 26.2219 54.3341 26.9118 54.4341 27.7004C54.4341 27.9961 54.334 28.2918 54.234 28.5875C54.034 29.0803 53.534 29.376 53.034 29.376Z" fill="#FF4667"/>
<path d="M34.7341 53.5205C33.8341 53.7176 33.0341 53.1262 32.8341 52.3377C32.6341 51.4506 33.2341 50.6621 34.0341 50.465C34.9341 50.2678 35.7341 50.8592 35.9341 51.6478C36.0341 52.042 35.9341 52.4363 35.7341 52.732C35.6341 53.1262 35.2341 53.4219 34.7341 53.5205Z" fill="#FF4667"/>
<path d="M50.2341 18.8313C49.5341 19.3241 48.5341 19.0284 48.0341 18.3385C47.5341 17.6485 47.8341 16.6628 48.5341 16.17C49.2341 15.6772 50.2341 15.9729 50.7341 16.6628C51.0341 17.1557 51.0341 17.7471 50.7341 18.2399C50.6341 18.5356 50.4341 18.7327 50.2341 18.8313Z" fill="white"/>
<path d="M22.9341 53.0277C22.1341 52.8306 21.634 51.9435 21.834 51.0564C22.034 50.2679 22.934 49.775 23.834 49.9722C24.634 50.1693 25.1341 51.0564 24.9341 51.9435C24.9341 52.0421 24.834 52.1406 24.734 52.3378C24.434 52.9292 23.6341 53.2248 22.9341 53.0277Z" fill="#FF4667"/>
<path d="M40.6341 11.3417C40.6341 11.2432 40.6341 11.2432 40.6341 11.3417C39.8341 10.8489 39.5341 9.96181 39.9341 9.17329C40.3341 8.38476 41.3341 8.18764 42.1341 8.5819C42.9341 8.97616 43.1341 9.96182 42.7341 10.7503C42.3341 11.4403 41.4341 11.736 40.6341 11.3417Z" fill="#FF4667"/>
<path d="M14.9341 47.2131C14.3341 47.8045 13.3341 47.903 12.7341 47.2131C12.1341 46.6217 12.1341 45.636 12.7341 45.0446C13.3341 44.4532 14.3341 44.4532 14.9341 45.0446C15.4341 45.5375 15.5341 46.326 15.2341 46.9174C15.1341 47.0159 15.0341 47.1145 14.9341 47.2131Z" fill="#FF4667"/>
<path d="M30.634 8.48377C29.734 8.48377 29.134 7.69524 29.134 6.90671C29.134 6.01962 29.9341 5.42822 30.7341 5.42822C31.6341 5.42822 32.3341 6.21676 32.2341 7.00528C32.2341 7.30098 32.1341 7.49811 32.0341 7.69524C31.8341 8.18807 31.234 8.48377 30.634 8.48377Z" fill="#FF4667"/>
<path d="M8.43407 38.344C7.63407 38.6397 6.73407 38.1469 6.43407 37.3584C6.13407 36.5698 6.63407 35.6827 7.43407 35.387C8.23407 35.0913 9.13407 35.5842 9.43407 36.3727C9.53407 36.767 9.53403 37.2598 9.33403 37.6541C9.13403 37.9497 8.83407 38.2454 8.43407 38.344Z" fill="white"/>
<path d="M20.534 10.455C19.734 10.8492 18.8341 10.455 18.4341 9.66644C18.0341 8.87792 18.434 7.99083 19.134 7.59657C19.934 7.2023 20.834 7.59656 21.234 8.28653C21.434 8.77936 21.434 9.27218 21.134 9.76501C21.134 10.1593 20.834 10.3564 20.534 10.455Z" fill="#FF4667"/>
<path d="M6.73399 27.5035C5.83399 27.405 5.33401 26.6164 5.43401 25.7293C5.53401 24.8423 6.33399 24.3494 7.23399 24.448C8.13399 24.5466 8.63398 25.3351 8.53398 26.2222C8.53398 26.4193 8.43397 26.6164 8.33397 26.715C8.03397 27.3064 7.43399 27.7007 6.73399 27.5035Z" fill="#FF4667"/>
<path d="M12.634 16.9589C12.134 17.6489 11.1341 17.7474 10.4341 17.2546C9.73406 16.7618 9.63401 15.7761 10.134 15.0861C10.634 14.3962 11.634 14.2976 12.334 14.7904C12.934 15.2833 13.1341 16.1704 12.7341 16.8603C12.6341 16.8603 12.634 16.8603 12.634 16.9589Z" fill="#FF4667"/>
<path d="M46.5341 38.0482C45.9341 37.7525 45.634 37.0625 45.834 36.3725C46.134 35.7812 46.8341 35.3869 47.5341 35.6826C48.1341 35.9783 48.4341 36.6682 48.2341 37.3582C48.2341 37.3582 48.234 37.4568 48.134 37.4568C47.834 38.0482 47.1341 38.3439 46.5341 38.0482Z" fill="#FF4667"/>
<path d="M42.434 44.9468C41.934 45.341 41.034 45.341 40.634 44.7497C40.234 44.2568 40.234 43.4683 40.834 42.9755C41.334 42.5812 42.234 42.5812 42.634 43.1726C42.934 43.5669 43.034 44.1583 42.734 44.5525C42.734 44.7497 42.634 44.8482 42.434 44.9468Z" fill="#FF4667"/>
<path d="M48.6341 29.4744C47.9341 29.573 47.3341 28.9816 47.2341 28.2916C47.1341 27.6016 47.7341 27.0102 48.4341 26.9117C49.1341 26.8131 49.7341 27.4045 49.8341 28.0945C49.8341 28.3902 49.8341 28.5873 49.6341 28.7844C49.4341 29.1787 49.0341 29.4744 48.6341 29.4744Z" fill="#FF4667"/>
<path d="M33.8341 48.9869C33.1341 49.0855 32.4341 48.6913 32.3341 48.0013C32.2341 47.3113 32.6341 46.6214 33.3341 46.5228C34.0341 46.4242 34.7341 46.8185 34.8341 47.5085C34.9341 47.8042 34.8341 48.0998 34.7341 48.3955C34.5341 48.6912 34.2341 48.8884 33.8341 48.9869Z" fill="white"/>
<path d="M46.334 20.9009C45.734 21.2952 44.934 21.098 44.534 20.5067C44.134 19.9153 44.334 19.1267 44.934 18.7325C45.534 18.3382 46.334 18.5353 46.734 19.1267C47.034 19.521 47.034 20.0138 46.734 20.4081C46.734 20.6052 46.534 20.8024 46.334 20.9009Z" fill="#FF4667"/>
<path d="M24.2341 48.593C23.5341 48.3959 23.1341 47.7059 23.3341 47.016C23.5341 46.326 24.2341 45.9317 24.9341 46.1289C25.6341 46.326 26.0341 47.016 25.8341 47.7059C25.8341 47.8045 25.7341 47.9031 25.7341 48.0016C25.4341 48.4945 24.8341 48.7902 24.2341 48.593Z" fill="#FF4667"/>
<path d="M38.634 14.791C38.534 14.791 38.534 14.791 38.634 14.791C38.534 14.791 38.534 14.791 38.634 14.791C37.934 14.3968 37.734 13.6083 38.134 13.0169C38.434 12.4255 39.2341 12.2283 39.8341 12.524C40.4341 12.9183 40.6341 13.6083 40.3341 14.1997C39.9341 14.8896 39.234 15.1853 38.634 14.791Z" fill="white"/>
<path d="M17.7341 43.8625C17.2341 44.3554 16.4341 44.3554 15.9341 43.8625C15.4341 43.3697 15.4341 42.5812 15.9341 42.0884C16.4341 41.5955 17.2341 41.5955 17.7341 42.0884C18.1341 42.4826 18.2341 43.1726 17.9341 43.6654C17.9341 43.6654 17.8341 43.764 17.7341 43.8625Z" fill="white"/>
<path d="M30.5341 12.5243C29.8341 12.5243 29.2341 11.9329 29.3341 11.2429C29.3341 10.5529 29.9341 9.96154 30.6341 10.0601C31.3341 10.0601 31.9341 10.6515 31.8341 11.3414C31.8341 11.5386 31.7341 11.7357 31.6341 11.9329C31.4341 12.2285 31.0341 12.5243 30.5341 12.5243Z" fill="#FF4667"/>
<path d="M12.4341 36.6687C11.7341 36.8658 11.034 36.5701 10.834 35.8802C10.634 35.1902 10.934 34.5002 11.634 34.3031C12.334 34.106 13.034 34.4017 13.234 35.0916C13.334 35.4859 13.334 35.7816 13.134 36.0773C13.034 36.373 12.8341 36.5701 12.4341 36.6687Z" fill="#FF4667"/>
<path d="M22.3341 14.1013C21.7341 14.397 20.934 14.1013 20.634 13.5099C20.334 12.9185 20.6341 12.13 21.2341 11.8343C21.8341 11.5386 22.6341 11.8343 22.9341 12.4257C23.1341 12.8199 23.1341 13.2142 22.9341 13.6085C22.7341 13.8056 22.5341 14.0027 22.3341 14.1013Z" fill="#FF4667"/>
<path d="M11.134 27.9962C10.434 27.8976 9.93398 27.2077 10.034 26.5177C10.134 25.8277 10.834 25.3349 11.534 25.4335C12.234 25.532 12.734 26.222 12.634 26.9119C12.634 27.1091 12.534 27.2077 12.434 27.3062C12.234 27.799 11.634 27.9962 11.134 27.9962Z" fill="#FF4667"/>
<path d="M15.8341 19.3242C15.4341 19.9156 14.6341 20.0142 14.0341 19.6199C13.4341 19.2257 13.3341 18.4371 13.7341 17.8457C14.1341 17.2543 14.9341 17.1558 15.5341 17.55C16.0341 17.9443 16.2341 18.6343 15.8341 19.2257C15.9341 19.2257 15.9341 19.3242 15.8341 19.3242Z" fill="#FF4667"/>
</svg>
