<svg width="156" height="36" fill="none" xmlns="http://www.w3.org/2000/svg"><path d="M53.36 29.155c-.58 0-1.017-.1-1.307-.302-.29-.18-.48-.426-.57-.74a3.67 3.67 0 0 1-.134-1.008V7.674c0-.359.034-.684.1-.975.09-.314.28-.56.57-.74.291-.201.749-.302 1.374-.302l6.3.033c1.63 0 3.127.28 4.49.84a10.38 10.38 0 0 1 3.585 2.388c1.005 1.03 1.776 2.263 2.312 3.698.558 1.412.838 2.97.838 4.672 0 1.749-.28 3.351-.838 4.808-.558 1.456-1.34 2.712-2.346 3.765a10.549 10.549 0 0 1-3.585 2.454c-1.363.56-2.882.84-4.557.84H53.36zm2.044-4.067h4.289c1.43 0 2.68-.314 3.753-.942a6.542 6.542 0 0 0 2.479-2.689c.603-1.143.905-2.477.905-4 0-1.547-.302-2.892-.905-4.035-.58-1.165-1.418-2.062-2.513-2.689-1.072-.65-2.323-.975-3.753-.975h-4.255v15.33zM74.392 29.19c-.603 0-1.05-.102-1.34-.303a1.147 1.147 0 0 1-.503-.74 4.999 4.999 0 0 1-.1-1.042V14.633c0-.404.033-.751.1-1.042a1.03 1.03 0 0 1 .503-.707c.29-.179.748-.268 1.373-.268.603 0 1.04.078 1.307.235.29.157.47.358.536.605.09.224.134.448.134.672l-.268.605c.112-.179.268-.392.47-.638.2-.27.469-.527.803-.773a3.864 3.864 0 0 1 1.207-.64c.469-.178 1.027-.268 1.675-.268.268 0 .547.034.838.1.313.046.614.124.904.236.313.09.593.213.838.37.246.157.436.347.57.571.134.202.2.437.2.706 0 .717-.178 1.323-.535 1.816-.358.493-.782.74-1.273.74-.336 0-.581-.034-.738-.102a1.73 1.73 0 0 1-.402-.235c-.09-.09-.234-.168-.435-.235-.179-.067-.47-.101-.871-.101-.336 0-.682.056-1.04.168a3.18 3.18 0 0 0-.938.504 2.48 2.48 0 0 0-.703.874c-.179.337-.268.729-.268 1.177v8.169a5 5 0 0 1-.1 1.042c-.068.292-.246.527-.537.706-.29.18-.76.27-1.407.27zM91.607 29.39c-1.452 0-2.725-.235-3.82-.705-1.072-.47-1.977-1.11-2.714-1.916a9.11 9.11 0 0 1-1.642-2.757 9.682 9.682 0 0 1-.536-3.194c0-1.613.368-3.048 1.106-4.303a7.91 7.91 0 0 1 3.049-2.958c1.318-.717 2.826-1.076 4.523-1.076 1.207 0 2.268.19 3.183.572.916.38 1.676.885 2.279 1.512a6.106 6.106 0 0 1 1.407 2.018c.335.74.503 1.456.503 2.151 0 1.188-.29 2.05-.871 2.589-.559.537-1.263.806-2.111.806h-8.846c.022.762.257 1.423.703 1.984.47.56 1.05.997 1.743 1.31.715.292 1.44.438 2.178.438.558 0 1.05-.034 1.474-.1a9.16 9.16 0 0 0 1.14-.236c.312-.112.58-.224.803-.336.246-.113.47-.213.67-.303.202-.09.392-.146.57-.168.246-.023.492.034.737.168.246.134.447.37.604.706.134.224.223.437.268.639.067.179.1.358.1.538 0 .448-.268.874-.804 1.277-.536.381-1.296.695-2.278.941-.961.27-2.1.404-3.418.404zm-4.49-9.648h6.869c.38 0 .67-.056.87-.168.202-.134.303-.403.303-.806a2.19 2.19 0 0 0-.47-1.379 2.95 2.95 0 0 0-1.273-.975c-.536-.246-1.161-.37-1.876-.37-.827 0-1.575.169-2.245.505-.67.314-1.207.75-1.609 1.31a3.28 3.28 0 0 0-.57 1.883zM113.757 29.122c-.648 0-1.128-.123-1.441-.37-.312-.246-.469-.583-.469-1.008l.235-1.11c-.179.291-.481.639-.905 1.042-.424.381-.983.729-1.675 1.042-.693.292-1.53.438-2.513.438a7.131 7.131 0 0 1-2.982-.64 8.393 8.393 0 0 1-2.447-1.815 9.915 9.915 0 0 1-1.675-2.655 8.633 8.633 0 0 1-.603-3.228c0-1.098.201-2.129.603-3.093a9.005 9.005 0 0 1 1.709-2.622 7.897 7.897 0 0 1 2.446-1.781 6.757 6.757 0 0 1 2.949-.673c.916 0 1.686.124 2.312.37.647.246 1.195.56 1.641.941.447.359.816.74 1.106 1.143l-.201-.975c0-.493.157-.863.469-1.109.313-.269.804-.403 1.475-.403.625 0 1.072.1 1.34.302.268.18.435.437.502.773.068.314.101.673.101 1.076v12.304c0 .381-.033.728-.101 1.042-.067.314-.245.56-.536.74-.268.18-.714.269-1.34.269zm-6.165-3.9c.759 0 1.441-.19 2.044-.571a4.175 4.175 0 0 0 1.441-1.547 4.441 4.441 0 0 0 .569-2.218c0-.874-.19-1.636-.569-2.287a4.082 4.082 0 0 0-1.508-1.512c-.603-.381-1.285-.572-2.044-.572-.827 0-1.564.202-2.212.605a4.181 4.181 0 0 0-1.541 1.58c-.357.65-.536 1.39-.536 2.22 0 .806.19 1.534.569 2.184.38.65.894 1.166 1.542 1.547.67.38 1.418.571 2.245.571zM119.364 29.155c-.603 0-1.05-.09-1.34-.268a1.148 1.148 0 0 1-.503-.74c-.067-.314-.1-.65-.1-1.009V14.565c0-.358.033-.683.1-.974.067-.292.246-.527.536-.707.291-.179.749-.268 1.374-.268.648 0 1.117.134 1.407.403.313.269.469.695.469 1.277l-.301.942c.112-.247.301-.516.57-.807.268-.291.591-.583.971-.874a5.45 5.45 0 0 1 1.341-.706 4.459 4.459 0 0 1 1.541-.269c.737 0 1.407.123 2.01.37a4.748 4.748 0 0 1 1.642 1.075c.492.471.916 1.043 1.273 1.715.38-.583.805-1.11 1.274-1.58a4.929 4.929 0 0 1 1.642-1.143c.625-.291 1.329-.437 2.11-.437 1.296 0 2.38.325 3.251.975.893.65 1.563 1.58 2.01 2.79.469 1.188.704 2.611.704 4.27v6.521c0 .381-.045.729-.134 1.042-.067.292-.246.527-.536.707-.268.179-.715.268-1.341.268-.625 0-1.083-.1-1.373-.302-.291-.18-.47-.415-.537-.706a5 5 0 0 1-.1-1.042v-6.522c0-.83-.101-1.546-.302-2.152-.201-.605-.502-1.075-.904-1.412-.38-.336-.883-.504-1.508-.504-.67 0-1.251.168-1.743.505-.469.313-.837.773-1.105 1.378-.268.605-.402 1.345-.402 2.219v6.555c0 .381-.056.74-.168 1.076-.112.313-.335.549-.67.706-.313.179-.771.246-1.374.201-.558-.022-.972-.134-1.24-.336a1.326 1.326 0 0 1-.469-.74 7.013 7.013 0 0 1-.067-.974v-6.522c0-.83-.1-1.546-.301-2.152-.201-.627-.503-1.098-.905-1.412-.38-.336-.894-.504-1.541-.504-.693 0-1.285.18-1.776.538-.469.359-.827.84-1.072 1.446-.246.605-.369 1.3-.369 2.084v6.589c0 .359-.045.695-.134 1.008-.067.314-.246.55-.536.707-.268.179-.726.268-1.374.268zM148.765 29.39a9.085 9.085 0 0 1-1.843-.2 10.518 10.518 0 0 1-1.876-.505 8.013 8.013 0 0 1-1.575-.84c-.425-.337-.693-.707-.804-1.11a1.318 1.318 0 0 1-.101-.639c.023-.224.09-.448.201-.672.112-.247.279-.493.503-.74.201-.246.402-.38.603-.403.223-.045.503.022.838.202.29.112.603.257.938.437l1.072.537c.38.18.76.325 1.139.438.402.112.793.168 1.173.168.827 0 1.486-.135 1.977-.404.491-.291.737-.694.737-1.21 0-.291-.078-.55-.234-.773a1.68 1.68 0 0 0-.637-.538 3.784 3.784 0 0 0-.905-.404 7.135 7.135 0 0 0-1.105-.336 63.71 63.71 0 0 1-1.207-.37 16.427 16.427 0 0 1-1.675-.571 5.918 5.918 0 0 1-1.508-.874 4.173 4.173 0 0 1-1.039-1.345c-.268-.538-.402-1.21-.402-2.017 0-1.008.235-1.86.704-2.555.491-.717 1.195-1.266 2.111-1.647.916-.381 2.022-.572 3.317-.572.447 0 .871.034 1.273.101.425.068.827.168 1.207.303.402.112.781.258 1.139.437.38.18.737.381 1.072.605.559.314.849.684.871 1.11.023.403-.134.84-.469 1.31-.245.314-.491.538-.737.673a.926.926 0 0 1-.771 0 61.29 61.29 0 0 0-1.172-.572 8.166 8.166 0 0 0-1.274-.571 3.831 3.831 0 0 0-1.34-.235 3.4 3.4 0 0 0-1.206.201c-.358.135-.626.325-.804.572a1.447 1.447 0 0 0-.268.874c0 .314.089.571.268.773a2.1 2.1 0 0 0 .703.504c.291.135.637.258 1.039.37.402.09.827.18 1.273.269.626.134 1.262.303 1.91.504.648.202 1.24.482 1.776.84.559.36 1.005.841 1.34 1.446.335.583.503 1.345.503 2.286 0 1.636-.603 2.903-1.809 3.8-1.184.895-2.826 1.344-4.926 1.344z" fill="#392C7D"/><path d="M134.056 10.154c-.253 0-.436-.035-.549-.106a.494.494 0 0 1-.211-.307 1.815 1.815 0 0 1-.042-.392V3.558c0-.142.011-.272.032-.392a.488.488 0 0 1 .211-.297c.112-.077.299-.116.559-.116.268 0 .454.039.56.116a.448.448 0 0 1 .2.297c.028.12.042.25.042.392v5.198h2.892c.12 0 .232.011.338.032.105.021.19.081.253.18.07.1.105.261.105.487 0 .22-.035.381-.105.487a.418.418 0 0 1-.264.18 1.55 1.55 0 0 1-.327.032h-3.694zM140.931 10.154c-.253 0-.436-.039-.549-.116a.503.503 0 0 1-.2-.297 1.866 1.866 0 0 1-.042-.402V3.547c0-.134.014-.258.042-.37a.488.488 0 0 1 .211-.297c.112-.078.299-.116.559-.116.176 0 .31.01.401.031a.413.413 0 0 1 .201.096c.042.035.088.077.137.127l2.374 3.218h-.158l2.385-3.218a.698.698 0 0 1 .169-.16.573.573 0 0 1 .211-.073c.092-.014.218-.021.38-.021.253 0 .436.038.549.116.112.078.183.18.211.307.028.12.042.247.042.381V9.36c0 .134-.014.261-.042.381a.492.492 0 0 1-.211.297c-.113.077-.299.116-.56.116-.253 0-.436-.039-.548-.116a.49.49 0 0 1-.211-.307 1.755 1.755 0 0 1-.043-.392v-3.78l-1.572 2.234-.116.148a.624.624 0 0 1-.211.148.79.79 0 0 1-.348.064.896.896 0 0 1-.37-.064.646.646 0 0 1-.2-.148 5.743 5.743 0 0 1-.127-.148l-1.562-2.224V9.36c0 .134-.014.261-.042.381a.492.492 0 0 1-.211.297c-.106.077-.289.116-.549.116zM152.207 10.26c-.373 0-.7-.046-.982-.138a3.144 3.144 0 0 1-.707-.328 2.609 2.609 0 0 1-.453-.392 3.097 3.097 0 0 1-.233-.286 1.174 1.174 0 0 1-.221-.402.54.54 0 0 1 .042-.36c.063-.12.169-.25.317-.392.147-.127.285-.194.411-.2a.611.611 0 0 1 .391.094c.126.078.249.188.369.329.169.204.334.35.496.434.169.077.345.116.528.116.232 0 .429-.028.591-.084a.73.73 0 0 0 .369-.265.846.846 0 0 0 .127-.477.442.442 0 0 0-.18-.37 1.424 1.424 0 0 0-.464-.254 7.094 7.094 0 0 0-.644-.201 9.07 9.07 0 0 1-.696-.244 2.77 2.77 0 0 1-.465-.212 3.493 3.493 0 0 1-.422-.286 1.62 1.62 0 0 1-.348-.38 2.098 2.098 0 0 1-.222-.51 2.646 2.646 0 0 1-.074-.656c0-.416.102-.787.306-1.111.204-.325.486-.58.845-.763.366-.19.784-.286 1.256-.286.316 0 .591.029.823.085.239.057.439.124.601.201.162.078.289.156.38.233.099.07.166.127.201.17.197.183.306.342.327.476.021.127-.053.307-.222.54-.176.247-.352.385-.527.413-.169.028-.363-.032-.581-.18a3.352 3.352 0 0 0-.253-.212.964.964 0 0 0-.306-.148 1.324 1.324 0 0 0-.454-.063.934.934 0 0 0-.317.053.713.713 0 0 0-.253.127.627.627 0 0 0-.232.476c0 .162.053.293.158.392.113.099.257.18.433.243.183.057.383.113.601.17.226.05.454.11.686.18.212.07.416.159.613.264.197.1.372.226.527.382.155.155.278.35.37.582.098.233.147.519.147.858 0 .423-.081.787-.242 1.09-.162.304-.377.55-.644.741a2.71 2.71 0 0 1-.866.413 3.18 3.18 0 0 1-.907.138zM35.784 14.375v7.003c0 1.022-.48 1.973-1.268 2.509a38.272 38.272 0 0 1-2.61 1.623V14.375h3.878zM31.707 14.375v11.184c-2.843 1.624-6.858 3.424-10.668 3.424-5.224 0-10.83-3.383-13.28-5.053-.788-.539-1.267-1.493-1.267-2.52v-7.035h25.215z" fill="#FF4667"/><path d="M35.59 14.229v6.84c0 1.001-.479 1.932-1.267 2.457-2.45 1.63-8.056 4.93-13.28 4.93-5.223 0-10.829-3.3-13.279-4.93-.789-.525-1.268-1.456-1.268-2.458v-6.84H35.59zm.792-.795H5.705v7.634c0 1.278.606 2.445 1.622 3.12 1.29.86 3.331 2.102 5.721 3.144 2.923 1.274 5.613 1.92 7.995 1.92 2.383 0 5.073-.646 7.995-1.92 2.39-1.042 4.431-2.284 5.722-3.143 1.016-.676 1.622-1.843 1.622-3.12v-7.635z" fill="#FF4667"/><path d="M31.34 27.181c-.74.09-1.423.45-1.919 1.01a3.076 3.076 0 0 0-.77 2.034v2.705c0 1.097.582 2.11 1.528 2.659.946.548 2.111.548 3.057 0a3.072 3.072 0 0 0 1.528-2.659v-2.705c0-.75-.275-1.473-.77-2.034a3.052 3.052 0 0 0-1.92-1.01" fill="#392C7D"/><path d="M34.03 30.587h-4.645v-.328a2.328 2.328 0 0 1 2.322-2.333 2.328 2.328 0 0 1 2.323 2.333v.328z" fill="#fff"/><path d="m39.525 13.322-17.593 8.412a2.165 2.165 0 0 1-1.873-.002L2.37 13.23c-1.64-.788-1.648-3.13-.014-3.93L20.035.635a2.165 2.165 0 0 1 1.918.005l17.603 8.754c1.625.809 1.607 3.144-.03 3.927z" fill="#392C7D"/><path d="M20.988.781c.243 0 .485.054.708.163l18.02 8.803a1.564 1.564 0 0 1-.022 2.83l-18.013 8.46a1.613 1.613 0 0 1-1.374-.002l-18.109-8.55a1.564 1.564 0 0 1-.01-2.833L20.287.94c.221-.106.46-.159.7-.159zm0-.781c-.36 0-.722.082-1.046.238L1.84 8.95A2.334 2.334 0 0 0 .5 11.075a2.335 2.335 0 0 0 1.356 2.115l18.109 8.55a2.428 2.428 0 0 0 2.056.002l18.013-8.46a2.336 2.336 0 0 0 1.36-2.107 2.334 2.334 0 0 0-1.327-2.128L22.047.245A2.426 2.426 0 0 0 20.988 0z" fill="#392C7D"/></svg>